<mxfile host="65bd71144e" pages="2">
    <diagram id="R2lEEEUBdFMjLlhIrx00" name="Page-1">
        <mxGraphModel dx="1944" dy="771" grid="1" gridSize="10" guides="1" tooltips="1" connect="1" arrows="1" fold="1" page="1" pageScale="1" pageWidth="850" pageHeight="1100" math="0" shadow="0" extFonts="Permanent Marker^https://fonts.googleapis.com/css?family=Permanent+Marker">
            <root>
                <mxCell id="0"/>
                <mxCell id="1" parent="0"/>
                <mxCell id="Apy66p_QesDcBcl1Cka--94" value="" style="edgeStyle=entityRelationEdgeStyle;fontSize=12;html=1;endArrow=ERmany;startArrow=ERmany;exitX=1;exitY=0.25;exitDx=0;exitDy=0;" parent="1" source="Apy66p_QesDcBcl1Cka--11" target="KSzaHcFA-20L5qhvlI6W-90" edge="1">
                    <mxGeometry width="100" height="100" relative="1" as="geometry">
                        <mxPoint x="55" y="600" as="sourcePoint"/>
                        <mxPoint x="140" y="360" as="targetPoint"/>
                    </mxGeometry>
                </mxCell>
                <mxCell id="KSzaHcFA-20L5qhvlI6W-52" value="Question" style="shape=table;startSize=30;container=1;collapsible=1;childLayout=tableLayout;fixedRows=1;rowLines=0;fontStyle=1;align=center;resizeLast=1;hachureGap=4;pointerEvents=0;" parent="1" vertex="1">
                    <mxGeometry x="160" y="570" width="180" height="160" as="geometry"/>
                </mxCell>
                <mxCell id="KSzaHcFA-20L5qhvlI6W-53" value="" style="shape=partialRectangle;collapsible=0;dropTarget=0;pointerEvents=0;fillColor=none;top=0;left=0;bottom=1;right=0;points=[[0,0.5],[1,0.5]];portConstraint=eastwest;" parent="KSzaHcFA-20L5qhvlI6W-52" vertex="1">
                    <mxGeometry y="30" width="180" height="30" as="geometry"/>
                </mxCell>
                <mxCell id="KSzaHcFA-20L5qhvlI6W-54" value="PK" style="shape=partialRectangle;connectable=0;fillColor=none;top=0;left=0;bottom=0;right=0;fontStyle=1;overflow=hidden;" parent="KSzaHcFA-20L5qhvlI6W-53" vertex="1">
                    <mxGeometry width="30" height="30" as="geometry">
                        <mxRectangle width="30" height="30" as="alternateBounds"/>
                    </mxGeometry>
                </mxCell>
                <mxCell id="KSzaHcFA-20L5qhvlI6W-55" value="ID" style="shape=partialRectangle;connectable=0;fillColor=none;top=0;left=0;bottom=0;right=0;align=left;spacingLeft=6;fontStyle=5;overflow=hidden;" parent="KSzaHcFA-20L5qhvlI6W-53" vertex="1">
                    <mxGeometry x="30" width="150" height="30" as="geometry">
                        <mxRectangle width="150" height="30" as="alternateBounds"/>
                    </mxGeometry>
                </mxCell>
                <mxCell id="KSzaHcFA-20L5qhvlI6W-56" value="" style="shape=partialRectangle;collapsible=0;dropTarget=0;pointerEvents=0;fillColor=none;top=0;left=0;bottom=0;right=0;points=[[0,0.5],[1,0.5]];portConstraint=eastwest;" parent="KSzaHcFA-20L5qhvlI6W-52" vertex="1">
                    <mxGeometry y="60" width="180" height="30" as="geometry"/>
                </mxCell>
                <mxCell id="KSzaHcFA-20L5qhvlI6W-57" value="" style="shape=partialRectangle;connectable=0;fillColor=none;top=0;left=0;bottom=0;right=0;editable=1;overflow=hidden;" parent="KSzaHcFA-20L5qhvlI6W-56" vertex="1">
                    <mxGeometry width="30" height="30" as="geometry">
                        <mxRectangle width="30" height="30" as="alternateBounds"/>
                    </mxGeometry>
                </mxCell>
                <mxCell id="KSzaHcFA-20L5qhvlI6W-58" value="Title" style="shape=partialRectangle;connectable=0;fillColor=none;top=0;left=0;bottom=0;right=0;align=left;spacingLeft=6;overflow=hidden;" parent="KSzaHcFA-20L5qhvlI6W-56" vertex="1">
                    <mxGeometry x="30" width="150" height="30" as="geometry">
                        <mxRectangle width="150" height="30" as="alternateBounds"/>
                    </mxGeometry>
                </mxCell>
                <mxCell id="KSzaHcFA-20L5qhvlI6W-59" value="" style="shape=partialRectangle;collapsible=0;dropTarget=0;pointerEvents=0;fillColor=none;top=0;left=0;bottom=0;right=0;points=[[0,0.5],[1,0.5]];portConstraint=eastwest;" parent="KSzaHcFA-20L5qhvlI6W-52" vertex="1">
                    <mxGeometry y="90" width="180" height="30" as="geometry"/>
                </mxCell>
                <mxCell id="KSzaHcFA-20L5qhvlI6W-60" value="" style="shape=partialRectangle;connectable=0;fillColor=none;top=0;left=0;bottom=0;right=0;editable=1;overflow=hidden;" parent="KSzaHcFA-20L5qhvlI6W-59" vertex="1">
                    <mxGeometry width="30" height="30" as="geometry">
                        <mxRectangle width="30" height="30" as="alternateBounds"/>
                    </mxGeometry>
                </mxCell>
                <mxCell id="KSzaHcFA-20L5qhvlI6W-61" value="Text" style="shape=partialRectangle;connectable=0;fillColor=none;top=0;left=0;bottom=0;right=0;align=left;spacingLeft=6;overflow=hidden;" parent="KSzaHcFA-20L5qhvlI6W-59" vertex="1">
                    <mxGeometry x="30" width="150" height="30" as="geometry">
                        <mxRectangle width="150" height="30" as="alternateBounds"/>
                    </mxGeometry>
                </mxCell>
                <mxCell id="KSzaHcFA-20L5qhvlI6W-62" value="" style="shape=partialRectangle;collapsible=0;dropTarget=0;pointerEvents=0;fillColor=none;top=0;left=0;bottom=0;right=0;points=[[0,0.5],[1,0.5]];portConstraint=eastwest;" parent="KSzaHcFA-20L5qhvlI6W-52" vertex="1">
                    <mxGeometry y="120" width="180" height="30" as="geometry"/>
                </mxCell>
                <mxCell id="KSzaHcFA-20L5qhvlI6W-63" value="" style="shape=partialRectangle;connectable=0;fillColor=none;top=0;left=0;bottom=0;right=0;editable=1;overflow=hidden;" parent="KSzaHcFA-20L5qhvlI6W-62" vertex="1">
                    <mxGeometry width="30" height="30" as="geometry">
                        <mxRectangle width="30" height="30" as="alternateBounds"/>
                    </mxGeometry>
                </mxCell>
                <mxCell id="KSzaHcFA-20L5qhvlI6W-64" value="Category" style="shape=partialRectangle;connectable=0;fillColor=none;top=0;left=0;bottom=0;right=0;align=left;spacingLeft=6;overflow=hidden;" parent="KSzaHcFA-20L5qhvlI6W-62" vertex="1">
                    <mxGeometry x="30" width="150" height="30" as="geometry">
                        <mxRectangle width="150" height="30" as="alternateBounds"/>
                    </mxGeometry>
                </mxCell>
                <mxCell id="KSzaHcFA-20L5qhvlI6W-65" value="Answer" style="shape=table;startSize=30;container=1;collapsible=1;childLayout=tableLayout;fixedRows=1;rowLines=0;fontStyle=1;align=center;resizeLast=1;hachureGap=4;pointerEvents=0;" parent="1" vertex="1">
                    <mxGeometry x="630" y="590" width="180" height="160" as="geometry"/>
                </mxCell>
                <mxCell id="KSzaHcFA-20L5qhvlI6W-66" value="" style="shape=partialRectangle;collapsible=0;dropTarget=0;pointerEvents=0;fillColor=none;top=0;left=0;bottom=1;right=0;points=[[0,0.5],[1,0.5]];portConstraint=eastwest;" parent="KSzaHcFA-20L5qhvlI6W-65" vertex="1">
                    <mxGeometry y="30" width="180" height="30" as="geometry"/>
                </mxCell>
                <mxCell id="KSzaHcFA-20L5qhvlI6W-67" value="PK" style="shape=partialRectangle;connectable=0;fillColor=none;top=0;left=0;bottom=0;right=0;fontStyle=1;overflow=hidden;" parent="KSzaHcFA-20L5qhvlI6W-66" vertex="1">
                    <mxGeometry width="30" height="30" as="geometry">
                        <mxRectangle width="30" height="30" as="alternateBounds"/>
                    </mxGeometry>
                </mxCell>
                <mxCell id="KSzaHcFA-20L5qhvlI6W-68" value="ID" style="shape=partialRectangle;connectable=0;fillColor=none;top=0;left=0;bottom=0;right=0;align=left;spacingLeft=6;fontStyle=5;overflow=hidden;" parent="KSzaHcFA-20L5qhvlI6W-66" vertex="1">
                    <mxGeometry x="30" width="150" height="30" as="geometry">
                        <mxRectangle width="150" height="30" as="alternateBounds"/>
                    </mxGeometry>
                </mxCell>
                <mxCell id="KSzaHcFA-20L5qhvlI6W-69" value="" style="shape=partialRectangle;collapsible=0;dropTarget=0;pointerEvents=0;fillColor=none;top=0;left=0;bottom=0;right=0;points=[[0,0.5],[1,0.5]];portConstraint=eastwest;" parent="KSzaHcFA-20L5qhvlI6W-65" vertex="1">
                    <mxGeometry y="60" width="180" height="30" as="geometry"/>
                </mxCell>
                <mxCell id="KSzaHcFA-20L5qhvlI6W-70" value="" style="shape=partialRectangle;connectable=0;fillColor=none;top=0;left=0;bottom=0;right=0;editable=1;overflow=hidden;" parent="KSzaHcFA-20L5qhvlI6W-69" vertex="1">
                    <mxGeometry width="30" height="30" as="geometry">
                        <mxRectangle width="30" height="30" as="alternateBounds"/>
                    </mxGeometry>
                </mxCell>
                <mxCell id="KSzaHcFA-20L5qhvlI6W-71" value="Text" style="shape=partialRectangle;connectable=0;fillColor=none;top=0;left=0;bottom=0;right=0;align=left;spacingLeft=6;overflow=hidden;" parent="KSzaHcFA-20L5qhvlI6W-69" vertex="1">
                    <mxGeometry x="30" width="150" height="30" as="geometry">
                        <mxRectangle width="150" height="30" as="alternateBounds"/>
                    </mxGeometry>
                </mxCell>
                <mxCell id="KSzaHcFA-20L5qhvlI6W-72" value="" style="shape=partialRectangle;collapsible=0;dropTarget=0;pointerEvents=0;fillColor=none;top=0;left=0;bottom=0;right=0;points=[[0,0.5],[1,0.5]];portConstraint=eastwest;" parent="KSzaHcFA-20L5qhvlI6W-65" vertex="1">
                    <mxGeometry y="90" width="180" height="30" as="geometry"/>
                </mxCell>
                <mxCell id="KSzaHcFA-20L5qhvlI6W-73" value="" style="shape=partialRectangle;connectable=0;fillColor=none;top=0;left=0;bottom=0;right=0;editable=1;overflow=hidden;" parent="KSzaHcFA-20L5qhvlI6W-72" vertex="1">
                    <mxGeometry width="30" height="30" as="geometry">
                        <mxRectangle width="30" height="30" as="alternateBounds"/>
                    </mxGeometry>
                </mxCell>
                <mxCell id="KSzaHcFA-20L5qhvlI6W-74" value="Points" style="shape=partialRectangle;connectable=0;fillColor=none;top=0;left=0;bottom=0;right=0;align=left;spacingLeft=6;overflow=hidden;" parent="KSzaHcFA-20L5qhvlI6W-72" vertex="1">
                    <mxGeometry x="30" width="150" height="30" as="geometry">
                        <mxRectangle width="150" height="30" as="alternateBounds"/>
                    </mxGeometry>
                </mxCell>
                <mxCell id="KSzaHcFA-20L5qhvlI6W-75" value="" style="shape=partialRectangle;collapsible=0;dropTarget=0;pointerEvents=0;fillColor=none;top=0;left=0;bottom=0;right=0;points=[[0,0.5],[1,0.5]];portConstraint=eastwest;" parent="KSzaHcFA-20L5qhvlI6W-65" vertex="1">
                    <mxGeometry y="120" width="180" height="30" as="geometry"/>
                </mxCell>
                <mxCell id="KSzaHcFA-20L5qhvlI6W-76" value="" style="shape=partialRectangle;connectable=0;fillColor=none;top=0;left=0;bottom=0;right=0;editable=1;overflow=hidden;" parent="KSzaHcFA-20L5qhvlI6W-75" vertex="1">
                    <mxGeometry width="30" height="30" as="geometry">
                        <mxRectangle width="30" height="30" as="alternateBounds"/>
                    </mxGeometry>
                </mxCell>
                <mxCell id="KSzaHcFA-20L5qhvlI6W-77" value="Picture" style="shape=partialRectangle;connectable=0;fillColor=none;top=0;left=0;bottom=0;right=0;align=left;spacingLeft=6;overflow=hidden;" parent="KSzaHcFA-20L5qhvlI6W-75" vertex="1">
                    <mxGeometry x="30" width="150" height="30" as="geometry">
                        <mxRectangle width="150" height="30" as="alternateBounds"/>
                    </mxGeometry>
                </mxCell>
                <mxCell id="KSzaHcFA-20L5qhvlI6W-145" value="" style="edgeStyle=entityRelationEdgeStyle;fontSize=12;html=1;endArrow=ERmany;startSize=14;endSize=14;sourcePerimeterSpacing=0;targetPerimeterSpacing=0;" parent="KSzaHcFA-20L5qhvlI6W-65" source="KSzaHcFA-20L5qhvlI6W-72" target="KSzaHcFA-20L5qhvlI6W-75" edge="1">
                    <mxGeometry width="100" height="100" relative="1" as="geometry">
                        <mxPoint x="90" y="140" as="sourcePoint"/>
                        <mxPoint x="130" y="160" as="targetPoint"/>
                    </mxGeometry>
                </mxCell>
                <mxCell id="KSzaHcFA-20L5qhvlI6W-90" value="User" style="shape=table;startSize=30;container=1;collapsible=1;childLayout=tableLayout;fixedRows=1;rowLines=0;fontStyle=1;align=center;resizeLast=1;hachureGap=4;pointerEvents=0;" parent="1" vertex="1">
                    <mxGeometry x="160" y="320" width="180" height="160" as="geometry"/>
                </mxCell>
                <mxCell id="KSzaHcFA-20L5qhvlI6W-91" value="" style="shape=partialRectangle;collapsible=0;dropTarget=0;pointerEvents=0;fillColor=none;top=0;left=0;bottom=1;right=0;points=[[0,0.5],[1,0.5]];portConstraint=eastwest;" parent="KSzaHcFA-20L5qhvlI6W-90" vertex="1">
                    <mxGeometry y="30" width="180" height="30" as="geometry"/>
                </mxCell>
                <mxCell id="KSzaHcFA-20L5qhvlI6W-92" value="PK" style="shape=partialRectangle;connectable=0;fillColor=none;top=0;left=0;bottom=0;right=0;fontStyle=1;overflow=hidden;" parent="KSzaHcFA-20L5qhvlI6W-91" vertex="1">
                    <mxGeometry width="30" height="30" as="geometry">
                        <mxRectangle width="30" height="30" as="alternateBounds"/>
                    </mxGeometry>
                </mxCell>
                <mxCell id="KSzaHcFA-20L5qhvlI6W-93" value="Email" style="shape=partialRectangle;connectable=0;fillColor=none;top=0;left=0;bottom=0;right=0;align=left;spacingLeft=6;fontStyle=5;overflow=hidden;" parent="KSzaHcFA-20L5qhvlI6W-91" vertex="1">
                    <mxGeometry x="30" width="150" height="30" as="geometry">
                        <mxRectangle width="150" height="30" as="alternateBounds"/>
                    </mxGeometry>
                </mxCell>
                <mxCell id="KSzaHcFA-20L5qhvlI6W-94" value="" style="shape=partialRectangle;collapsible=0;dropTarget=0;pointerEvents=0;fillColor=none;top=0;left=0;bottom=0;right=0;points=[[0,0.5],[1,0.5]];portConstraint=eastwest;" parent="KSzaHcFA-20L5qhvlI6W-90" vertex="1">
                    <mxGeometry y="60" width="180" height="30" as="geometry"/>
                </mxCell>
                <mxCell id="KSzaHcFA-20L5qhvlI6W-95" value="" style="shape=partialRectangle;connectable=0;fillColor=none;top=0;left=0;bottom=0;right=0;editable=1;overflow=hidden;" parent="KSzaHcFA-20L5qhvlI6W-94" vertex="1">
                    <mxGeometry width="30" height="30" as="geometry">
                        <mxRectangle width="30" height="30" as="alternateBounds"/>
                    </mxGeometry>
                </mxCell>
                <mxCell id="KSzaHcFA-20L5qhvlI6W-96" value="First name" style="shape=partialRectangle;connectable=0;fillColor=none;top=0;left=0;bottom=0;right=0;align=left;spacingLeft=6;overflow=hidden;" parent="KSzaHcFA-20L5qhvlI6W-94" vertex="1">
                    <mxGeometry x="30" width="150" height="30" as="geometry">
                        <mxRectangle width="150" height="30" as="alternateBounds"/>
                    </mxGeometry>
                </mxCell>
                <mxCell id="KSzaHcFA-20L5qhvlI6W-97" value="" style="shape=partialRectangle;collapsible=0;dropTarget=0;pointerEvents=0;fillColor=none;top=0;left=0;bottom=0;right=0;points=[[0,0.5],[1,0.5]];portConstraint=eastwest;" parent="KSzaHcFA-20L5qhvlI6W-90" vertex="1">
                    <mxGeometry y="90" width="180" height="30" as="geometry"/>
                </mxCell>
                <mxCell id="KSzaHcFA-20L5qhvlI6W-98" value="" style="shape=partialRectangle;connectable=0;fillColor=none;top=0;left=0;bottom=0;right=0;editable=1;overflow=hidden;" parent="KSzaHcFA-20L5qhvlI6W-97" vertex="1">
                    <mxGeometry width="30" height="30" as="geometry">
                        <mxRectangle width="30" height="30" as="alternateBounds"/>
                    </mxGeometry>
                </mxCell>
                <mxCell id="KSzaHcFA-20L5qhvlI6W-99" value="Last name" style="shape=partialRectangle;connectable=0;fillColor=none;top=0;left=0;bottom=0;right=0;align=left;spacingLeft=6;overflow=hidden;" parent="KSzaHcFA-20L5qhvlI6W-97" vertex="1">
                    <mxGeometry x="30" width="150" height="30" as="geometry">
                        <mxRectangle width="150" height="30" as="alternateBounds"/>
                    </mxGeometry>
                </mxCell>
                <mxCell id="KSzaHcFA-20L5qhvlI6W-100" value="" style="shape=partialRectangle;collapsible=0;dropTarget=0;pointerEvents=0;fillColor=none;top=0;left=0;bottom=0;right=0;points=[[0,0.5],[1,0.5]];portConstraint=eastwest;" parent="KSzaHcFA-20L5qhvlI6W-90" vertex="1">
                    <mxGeometry y="120" width="180" height="30" as="geometry"/>
                </mxCell>
                <mxCell id="KSzaHcFA-20L5qhvlI6W-101" value="" style="shape=partialRectangle;connectable=0;fillColor=none;top=0;left=0;bottom=0;right=0;editable=1;overflow=hidden;" parent="KSzaHcFA-20L5qhvlI6W-100" vertex="1">
                    <mxGeometry width="30" height="30" as="geometry">
                        <mxRectangle width="30" height="30" as="alternateBounds"/>
                    </mxGeometry>
                </mxCell>
                <mxCell id="KSzaHcFA-20L5qhvlI6W-102" value="Karma" style="shape=partialRectangle;connectable=0;fillColor=none;top=0;left=0;bottom=0;right=0;align=left;spacingLeft=6;overflow=hidden;" parent="KSzaHcFA-20L5qhvlI6W-100" vertex="1">
                    <mxGeometry x="30" width="150" height="30" as="geometry">
                        <mxRectangle width="150" height="30" as="alternateBounds"/>
                    </mxGeometry>
                </mxCell>
                <mxCell id="KSzaHcFA-20L5qhvlI6W-103" value="Rating" style="shape=table;startSize=30;container=1;collapsible=1;childLayout=tableLayout;fixedRows=1;rowLines=0;fontStyle=1;align=center;resizeLast=1;hachureGap=4;pointerEvents=0;" parent="1" vertex="1">
                    <mxGeometry x="600" y="270" width="180" height="100" as="geometry"/>
                </mxCell>
                <mxCell id="KSzaHcFA-20L5qhvlI6W-104" value="" style="shape=partialRectangle;collapsible=0;dropTarget=0;pointerEvents=0;fillColor=none;top=0;left=0;bottom=1;right=0;points=[[0,0.5],[1,0.5]];portConstraint=eastwest;" parent="KSzaHcFA-20L5qhvlI6W-103" vertex="1">
                    <mxGeometry y="30" width="180" height="30" as="geometry"/>
                </mxCell>
                <mxCell id="KSzaHcFA-20L5qhvlI6W-105" value="PK" style="shape=partialRectangle;connectable=0;fillColor=none;top=0;left=0;bottom=0;right=0;fontStyle=1;overflow=hidden;" parent="KSzaHcFA-20L5qhvlI6W-104" vertex="1">
                    <mxGeometry width="30" height="30" as="geometry">
                        <mxRectangle width="30" height="30" as="alternateBounds"/>
                    </mxGeometry>
                </mxCell>
                <mxCell id="KSzaHcFA-20L5qhvlI6W-106" value="ID" style="shape=partialRectangle;connectable=0;fillColor=none;top=0;left=0;bottom=0;right=0;align=left;spacingLeft=6;fontStyle=5;overflow=hidden;" parent="KSzaHcFA-20L5qhvlI6W-104" vertex="1">
                    <mxGeometry x="30" width="150" height="30" as="geometry">
                        <mxRectangle width="150" height="30" as="alternateBounds"/>
                    </mxGeometry>
                </mxCell>
                <mxCell id="KSzaHcFA-20L5qhvlI6W-107" value="" style="shape=partialRectangle;collapsible=0;dropTarget=0;pointerEvents=0;fillColor=none;top=0;left=0;bottom=0;right=0;points=[[0,0.5],[1,0.5]];portConstraint=eastwest;" parent="KSzaHcFA-20L5qhvlI6W-103" vertex="1">
                    <mxGeometry y="60" width="180" height="30" as="geometry"/>
                </mxCell>
                <mxCell id="KSzaHcFA-20L5qhvlI6W-108" value="" style="shape=partialRectangle;connectable=0;fillColor=none;top=0;left=0;bottom=0;right=0;editable=1;overflow=hidden;" parent="KSzaHcFA-20L5qhvlI6W-107" vertex="1">
                    <mxGeometry width="30" height="30" as="geometry">
                        <mxRectangle width="30" height="30" as="alternateBounds"/>
                    </mxGeometry>
                </mxCell>
                <mxCell id="KSzaHcFA-20L5qhvlI6W-109" value="Type" style="shape=partialRectangle;connectable=0;fillColor=none;top=0;left=0;bottom=0;right=0;align=left;spacingLeft=6;overflow=hidden;" parent="KSzaHcFA-20L5qhvlI6W-107" vertex="1">
                    <mxGeometry x="30" width="150" height="30" as="geometry">
                        <mxRectangle width="150" height="30" as="alternateBounds"/>
                    </mxGeometry>
                </mxCell>
                <mxCell id="KSzaHcFA-20L5qhvlI6W-116" value="Subject" style="shape=table;startSize=30;container=1;collapsible=1;childLayout=tableLayout;fixedRows=1;rowLines=0;fontStyle=1;align=center;resizeLast=1;hachureGap=4;pointerEvents=0;" parent="1" vertex="1">
                    <mxGeometry x="450" y="420" width="180" height="160" as="geometry"/>
                </mxCell>
                <mxCell id="KSzaHcFA-20L5qhvlI6W-117" value="" style="shape=partialRectangle;collapsible=0;dropTarget=0;pointerEvents=0;fillColor=none;top=0;left=0;bottom=1;right=0;points=[[0,0.5],[1,0.5]];portConstraint=eastwest;" parent="KSzaHcFA-20L5qhvlI6W-116" vertex="1">
                    <mxGeometry y="30" width="180" height="30" as="geometry"/>
                </mxCell>
                <mxCell id="KSzaHcFA-20L5qhvlI6W-118" value="PK" style="shape=partialRectangle;connectable=0;fillColor=none;top=0;left=0;bottom=0;right=0;fontStyle=1;overflow=hidden;" parent="KSzaHcFA-20L5qhvlI6W-117" vertex="1">
                    <mxGeometry width="30" height="30" as="geometry">
                        <mxRectangle width="30" height="30" as="alternateBounds"/>
                    </mxGeometry>
                </mxCell>
                <mxCell id="KSzaHcFA-20L5qhvlI6W-119" value="ID" style="shape=partialRectangle;connectable=0;fillColor=none;top=0;left=0;bottom=0;right=0;align=left;spacingLeft=6;fontStyle=5;overflow=hidden;" parent="KSzaHcFA-20L5qhvlI6W-117" vertex="1">
                    <mxGeometry x="30" width="150" height="30" as="geometry">
                        <mxRectangle width="150" height="30" as="alternateBounds"/>
                    </mxGeometry>
                </mxCell>
                <mxCell id="KSzaHcFA-20L5qhvlI6W-120" value="" style="shape=partialRectangle;collapsible=0;dropTarget=0;pointerEvents=0;fillColor=none;top=0;left=0;bottom=0;right=0;points=[[0,0.5],[1,0.5]];portConstraint=eastwest;" parent="KSzaHcFA-20L5qhvlI6W-116" vertex="1">
                    <mxGeometry y="60" width="180" height="30" as="geometry"/>
                </mxCell>
                <mxCell id="KSzaHcFA-20L5qhvlI6W-121" value="" style="shape=partialRectangle;connectable=0;fillColor=none;top=0;left=0;bottom=0;right=0;editable=1;overflow=hidden;" parent="KSzaHcFA-20L5qhvlI6W-120" vertex="1">
                    <mxGeometry width="30" height="30" as="geometry">
                        <mxRectangle width="30" height="30" as="alternateBounds"/>
                    </mxGeometry>
                </mxCell>
                <mxCell id="KSzaHcFA-20L5qhvlI6W-122" value="Name" style="shape=partialRectangle;connectable=0;fillColor=none;top=0;left=0;bottom=0;right=0;align=left;spacingLeft=6;overflow=hidden;" parent="KSzaHcFA-20L5qhvlI6W-120" vertex="1">
                    <mxGeometry x="30" width="150" height="30" as="geometry">
                        <mxRectangle width="150" height="30" as="alternateBounds"/>
                    </mxGeometry>
                </mxCell>
                <mxCell id="KSzaHcFA-20L5qhvlI6W-123" value="" style="shape=partialRectangle;collapsible=0;dropTarget=0;pointerEvents=0;fillColor=none;top=0;left=0;bottom=0;right=0;points=[[0,0.5],[1,0.5]];portConstraint=eastwest;" parent="KSzaHcFA-20L5qhvlI6W-116" vertex="1">
                    <mxGeometry y="90" width="180" height="30" as="geometry"/>
                </mxCell>
                <mxCell id="KSzaHcFA-20L5qhvlI6W-124" value="" style="shape=partialRectangle;connectable=0;fillColor=none;top=0;left=0;bottom=0;right=0;editable=1;overflow=hidden;" parent="KSzaHcFA-20L5qhvlI6W-123" vertex="1">
                    <mxGeometry width="30" height="30" as="geometry">
                        <mxRectangle width="30" height="30" as="alternateBounds"/>
                    </mxGeometry>
                </mxCell>
                <mxCell id="KSzaHcFA-20L5qhvlI6W-125" value="Row 2" style="shape=partialRectangle;connectable=0;fillColor=none;top=0;left=0;bottom=0;right=0;align=left;spacingLeft=6;overflow=hidden;" parent="KSzaHcFA-20L5qhvlI6W-123" vertex="1">
                    <mxGeometry x="30" width="150" height="30" as="geometry">
                        <mxRectangle width="150" height="30" as="alternateBounds"/>
                    </mxGeometry>
                </mxCell>
                <mxCell id="KSzaHcFA-20L5qhvlI6W-126" value="" style="shape=partialRectangle;collapsible=0;dropTarget=0;pointerEvents=0;fillColor=none;top=0;left=0;bottom=0;right=0;points=[[0,0.5],[1,0.5]];portConstraint=eastwest;" parent="KSzaHcFA-20L5qhvlI6W-116" vertex="1">
                    <mxGeometry y="120" width="180" height="30" as="geometry"/>
                </mxCell>
                <mxCell id="KSzaHcFA-20L5qhvlI6W-127" value="" style="shape=partialRectangle;connectable=0;fillColor=none;top=0;left=0;bottom=0;right=0;editable=1;overflow=hidden;" parent="KSzaHcFA-20L5qhvlI6W-126" vertex="1">
                    <mxGeometry width="30" height="30" as="geometry">
                        <mxRectangle width="30" height="30" as="alternateBounds"/>
                    </mxGeometry>
                </mxCell>
                <mxCell id="KSzaHcFA-20L5qhvlI6W-128" value="Row 3" style="shape=partialRectangle;connectable=0;fillColor=none;top=0;left=0;bottom=0;right=0;align=left;spacingLeft=6;overflow=hidden;" parent="KSzaHcFA-20L5qhvlI6W-126" vertex="1">
                    <mxGeometry x="30" width="150" height="30" as="geometry">
                        <mxRectangle width="150" height="30" as="alternateBounds"/>
                    </mxGeometry>
                </mxCell>
                <mxCell id="KSzaHcFA-20L5qhvlI6W-129" value="" style="group" parent="1" vertex="1" connectable="0">
                    <mxGeometry x="-370" y="320" width="460" height="350" as="geometry"/>
                </mxCell>
                <mxCell id="Apy66p_QesDcBcl1Cka--10" value="" style="group" parent="KSzaHcFA-20L5qhvlI6W-129" vertex="1" connectable="0">
                    <mxGeometry x="290" y="40" width="100" height="90" as="geometry"/>
                </mxCell>
                <mxCell id="Apy66p_QesDcBcl1Cka--11" value="Auth group" style="shape=table;startSize=30;container=1;collapsible=1;childLayout=tableLayout;fixedRows=1;rowLines=0;fontStyle=1;align=center;resizeLast=1;" parent="Apy66p_QesDcBcl1Cka--10" vertex="1">
                    <mxGeometry width="100" height="90" as="geometry"/>
                </mxCell>
                <mxCell id="Apy66p_QesDcBcl1Cka--12" value="" style="shape=partialRectangle;collapsible=0;dropTarget=0;pointerEvents=0;fillColor=none;points=[[0,0.5],[1,0.5]];portConstraint=eastwest;top=0;left=0;right=0;bottom=1;" parent="Apy66p_QesDcBcl1Cka--11" vertex="1">
                    <mxGeometry y="30" width="100" height="30" as="geometry"/>
                </mxCell>
                <mxCell id="Apy66p_QesDcBcl1Cka--13" value="PK" style="shape=partialRectangle;overflow=hidden;connectable=0;fillColor=none;top=0;left=0;bottom=0;right=0;fontStyle=1;" parent="Apy66p_QesDcBcl1Cka--12" vertex="1">
                    <mxGeometry width="30" height="30" as="geometry">
                        <mxRectangle width="30" height="30" as="alternateBounds"/>
                    </mxGeometry>
                </mxCell>
                <mxCell id="Apy66p_QesDcBcl1Cka--14" value="ID" style="shape=partialRectangle;overflow=hidden;connectable=0;fillColor=none;top=0;left=0;bottom=0;right=0;align=left;spacingLeft=6;fontStyle=5;" parent="Apy66p_QesDcBcl1Cka--12" vertex="1">
                    <mxGeometry x="30" width="70" height="30" as="geometry">
                        <mxRectangle width="70" height="30" as="alternateBounds"/>
                    </mxGeometry>
                </mxCell>
                <mxCell id="Apy66p_QesDcBcl1Cka--15" value="" style="shape=partialRectangle;collapsible=0;dropTarget=0;pointerEvents=0;fillColor=none;points=[[0,0.5],[1,0.5]];portConstraint=eastwest;top=0;left=0;right=0;bottom=0;" parent="Apy66p_QesDcBcl1Cka--11" vertex="1">
                    <mxGeometry y="60" width="100" height="30" as="geometry"/>
                </mxCell>
                <mxCell id="Apy66p_QesDcBcl1Cka--16" value="" style="shape=partialRectangle;overflow=hidden;connectable=0;fillColor=none;top=0;left=0;bottom=0;right=0;" parent="Apy66p_QesDcBcl1Cka--15" vertex="1">
                    <mxGeometry width="30" height="30" as="geometry">
                        <mxRectangle width="30" height="30" as="alternateBounds"/>
                    </mxGeometry>
                </mxCell>
                <mxCell id="Apy66p_QesDcBcl1Cka--17" value="Name" style="shape=partialRectangle;overflow=hidden;connectable=0;fillColor=none;top=0;left=0;bottom=0;right=0;align=left;spacingLeft=6;" parent="Apy66p_QesDcBcl1Cka--15" vertex="1">
                    <mxGeometry x="30" width="70" height="30" as="geometry">
                        <mxRectangle width="70" height="30" as="alternateBounds"/>
                    </mxGeometry>
                </mxCell>
                <mxCell id="Apy66p_QesDcBcl1Cka--51" value="Auth permissions" style="shape=table;startSize=30;container=1;collapsible=1;childLayout=tableLayout;fixedRows=1;rowLines=0;fontStyle=1;align=center;resizeLast=1;" parent="KSzaHcFA-20L5qhvlI6W-129" vertex="1">
                    <mxGeometry x="265" y="210" width="150" height="120" as="geometry"/>
                </mxCell>
                <mxCell id="Apy66p_QesDcBcl1Cka--52" value="" style="shape=partialRectangle;collapsible=0;dropTarget=0;pointerEvents=0;fillColor=none;top=0;left=0;bottom=1;right=0;points=[[0,0.5],[1,0.5]];portConstraint=eastwest;" parent="Apy66p_QesDcBcl1Cka--51" vertex="1">
                    <mxGeometry y="30" width="150" height="30" as="geometry"/>
                </mxCell>
                <mxCell id="Apy66p_QesDcBcl1Cka--53" value="PK" style="shape=partialRectangle;connectable=0;fillColor=none;top=0;left=0;bottom=0;right=0;fontStyle=1;overflow=hidden;" parent="Apy66p_QesDcBcl1Cka--52" vertex="1">
                    <mxGeometry width="30" height="30" as="geometry">
                        <mxRectangle width="30" height="30" as="alternateBounds"/>
                    </mxGeometry>
                </mxCell>
                <mxCell id="Apy66p_QesDcBcl1Cka--54" value="ID" style="shape=partialRectangle;connectable=0;fillColor=none;top=0;left=0;bottom=0;right=0;align=left;spacingLeft=6;fontStyle=5;overflow=hidden;" parent="Apy66p_QesDcBcl1Cka--52" vertex="1">
                    <mxGeometry x="30" width="120" height="30" as="geometry">
                        <mxRectangle width="120" height="30" as="alternateBounds"/>
                    </mxGeometry>
                </mxCell>
                <mxCell id="Apy66p_QesDcBcl1Cka--58" value="" style="shape=partialRectangle;collapsible=0;dropTarget=0;pointerEvents=0;fillColor=none;top=0;left=0;bottom=0;right=0;points=[[0,0.5],[1,0.5]];portConstraint=eastwest;" parent="Apy66p_QesDcBcl1Cka--51" vertex="1">
                    <mxGeometry y="60" width="150" height="30" as="geometry"/>
                </mxCell>
                <mxCell id="Apy66p_QesDcBcl1Cka--59" value="" style="shape=partialRectangle;connectable=0;fillColor=none;top=0;left=0;bottom=0;right=0;editable=1;overflow=hidden;" parent="Apy66p_QesDcBcl1Cka--58" vertex="1">
                    <mxGeometry width="30" height="30" as="geometry">
                        <mxRectangle width="30" height="30" as="alternateBounds"/>
                    </mxGeometry>
                </mxCell>
                <mxCell id="Apy66p_QesDcBcl1Cka--60" value="Codename" style="shape=partialRectangle;connectable=0;fillColor=none;top=0;left=0;bottom=0;right=0;align=left;spacingLeft=6;overflow=hidden;" parent="Apy66p_QesDcBcl1Cka--58" vertex="1">
                    <mxGeometry x="30" width="120" height="30" as="geometry">
                        <mxRectangle width="120" height="30" as="alternateBounds"/>
                    </mxGeometry>
                </mxCell>
                <mxCell id="Apy66p_QesDcBcl1Cka--61" value="" style="shape=partialRectangle;collapsible=0;dropTarget=0;pointerEvents=0;fillColor=none;top=0;left=0;bottom=0;right=0;points=[[0,0.5],[1,0.5]];portConstraint=eastwest;" parent="Apy66p_QesDcBcl1Cka--51" vertex="1">
                    <mxGeometry y="90" width="150" height="30" as="geometry"/>
                </mxCell>
                <mxCell id="Apy66p_QesDcBcl1Cka--62" value="" style="shape=partialRectangle;connectable=0;fillColor=none;top=0;left=0;bottom=0;right=0;editable=1;overflow=hidden;" parent="Apy66p_QesDcBcl1Cka--61" vertex="1">
                    <mxGeometry width="30" height="30" as="geometry">
                        <mxRectangle width="30" height="30" as="alternateBounds"/>
                    </mxGeometry>
                </mxCell>
                <mxCell id="Apy66p_QesDcBcl1Cka--63" value="Name" style="shape=partialRectangle;connectable=0;fillColor=none;top=0;left=0;bottom=0;right=0;align=left;spacingLeft=6;overflow=hidden;" parent="Apy66p_QesDcBcl1Cka--61" vertex="1">
                    <mxGeometry x="30" width="120" height="30" as="geometry">
                        <mxRectangle width="120" height="30" as="alternateBounds"/>
                    </mxGeometry>
                </mxCell>
                <mxCell id="Apy66p_QesDcBcl1Cka--64" value="Django content type" style="shape=table;startSize=30;container=1;collapsible=1;childLayout=tableLayout;fixedRows=1;rowLines=0;fontStyle=1;align=center;resizeLast=1;" parent="KSzaHcFA-20L5qhvlI6W-129" vertex="1">
                    <mxGeometry x="10" y="210" width="180" height="120" as="geometry"/>
                </mxCell>
                <mxCell id="Apy66p_QesDcBcl1Cka--65" value="" style="shape=partialRectangle;collapsible=0;dropTarget=0;pointerEvents=0;fillColor=none;top=0;left=0;bottom=1;right=0;points=[[0,0.5],[1,0.5]];portConstraint=eastwest;" parent="Apy66p_QesDcBcl1Cka--64" vertex="1">
                    <mxGeometry y="30" width="180" height="30" as="geometry"/>
                </mxCell>
                <mxCell id="Apy66p_QesDcBcl1Cka--66" value="PK" style="shape=partialRectangle;connectable=0;fillColor=none;top=0;left=0;bottom=0;right=0;fontStyle=1;overflow=hidden;" parent="Apy66p_QesDcBcl1Cka--65" vertex="1">
                    <mxGeometry width="30" height="30" as="geometry">
                        <mxRectangle width="30" height="30" as="alternateBounds"/>
                    </mxGeometry>
                </mxCell>
                <mxCell id="Apy66p_QesDcBcl1Cka--67" value="ID" style="shape=partialRectangle;connectable=0;fillColor=none;top=0;left=0;bottom=0;right=0;align=left;spacingLeft=6;fontStyle=5;overflow=hidden;" parent="Apy66p_QesDcBcl1Cka--65" vertex="1">
                    <mxGeometry x="30" width="150" height="30" as="geometry">
                        <mxRectangle width="150" height="30" as="alternateBounds"/>
                    </mxGeometry>
                </mxCell>
                <mxCell id="Apy66p_QesDcBcl1Cka--68" value="" style="shape=partialRectangle;collapsible=0;dropTarget=0;pointerEvents=0;fillColor=none;top=0;left=0;bottom=0;right=0;points=[[0,0.5],[1,0.5]];portConstraint=eastwest;" parent="Apy66p_QesDcBcl1Cka--64" vertex="1">
                    <mxGeometry y="60" width="180" height="30" as="geometry"/>
                </mxCell>
                <mxCell id="Apy66p_QesDcBcl1Cka--69" value="" style="shape=partialRectangle;connectable=0;fillColor=none;top=0;left=0;bottom=0;right=0;editable=1;overflow=hidden;" parent="Apy66p_QesDcBcl1Cka--68" vertex="1">
                    <mxGeometry width="30" height="30" as="geometry">
                        <mxRectangle width="30" height="30" as="alternateBounds"/>
                    </mxGeometry>
                </mxCell>
                <mxCell id="Apy66p_QesDcBcl1Cka--70" value="App label" style="shape=partialRectangle;connectable=0;fillColor=none;top=0;left=0;bottom=0;right=0;align=left;spacingLeft=6;overflow=hidden;" parent="Apy66p_QesDcBcl1Cka--68" vertex="1">
                    <mxGeometry x="30" width="150" height="30" as="geometry">
                        <mxRectangle width="150" height="30" as="alternateBounds"/>
                    </mxGeometry>
                </mxCell>
                <mxCell id="Apy66p_QesDcBcl1Cka--71" value="" style="shape=partialRectangle;collapsible=0;dropTarget=0;pointerEvents=0;fillColor=none;top=0;left=0;bottom=0;right=0;points=[[0,0.5],[1,0.5]];portConstraint=eastwest;" parent="Apy66p_QesDcBcl1Cka--64" vertex="1">
                    <mxGeometry y="90" width="180" height="30" as="geometry"/>
                </mxCell>
                <mxCell id="Apy66p_QesDcBcl1Cka--72" value="" style="shape=partialRectangle;connectable=0;fillColor=none;top=0;left=0;bottom=0;right=0;editable=1;overflow=hidden;" parent="Apy66p_QesDcBcl1Cka--71" vertex="1">
                    <mxGeometry width="30" height="30" as="geometry">
                        <mxRectangle width="30" height="30" as="alternateBounds"/>
                    </mxGeometry>
                </mxCell>
                <mxCell id="Apy66p_QesDcBcl1Cka--73" value="Model" style="shape=partialRectangle;connectable=0;fillColor=none;top=0;left=0;bottom=0;right=0;align=left;spacingLeft=6;overflow=hidden;" parent="Apy66p_QesDcBcl1Cka--71" vertex="1">
                    <mxGeometry x="30" width="150" height="30" as="geometry">
                        <mxRectangle width="150" height="30" as="alternateBounds"/>
                    </mxGeometry>
                </mxCell>
                <mxCell id="Apy66p_QesDcBcl1Cka--77" value="Django session" style="shape=table;startSize=30;container=1;collapsible=1;childLayout=tableLayout;fixedRows=1;rowLines=0;fontStyle=1;align=center;resizeLast=1;" parent="KSzaHcFA-20L5qhvlI6W-129" vertex="1">
                    <mxGeometry x="10" y="40" width="180" height="120" as="geometry"/>
                </mxCell>
                <mxCell id="Apy66p_QesDcBcl1Cka--78" value="" style="shape=partialRectangle;collapsible=0;dropTarget=0;pointerEvents=0;fillColor=none;top=0;left=0;bottom=1;right=0;points=[[0,0.5],[1,0.5]];portConstraint=eastwest;" parent="Apy66p_QesDcBcl1Cka--77" vertex="1">
                    <mxGeometry y="30" width="180" height="30" as="geometry"/>
                </mxCell>
                <mxCell id="Apy66p_QesDcBcl1Cka--79" value="PK" style="shape=partialRectangle;connectable=0;fillColor=none;top=0;left=0;bottom=0;right=0;fontStyle=1;overflow=hidden;" parent="Apy66p_QesDcBcl1Cka--78" vertex="1">
                    <mxGeometry width="30" height="30" as="geometry">
                        <mxRectangle width="30" height="30" as="alternateBounds"/>
                    </mxGeometry>
                </mxCell>
                <mxCell id="Apy66p_QesDcBcl1Cka--80" value="Session key" style="shape=partialRectangle;connectable=0;fillColor=none;top=0;left=0;bottom=0;right=0;align=left;spacingLeft=6;fontStyle=5;overflow=hidden;" parent="Apy66p_QesDcBcl1Cka--78" vertex="1">
                    <mxGeometry x="30" width="150" height="30" as="geometry">
                        <mxRectangle width="150" height="30" as="alternateBounds"/>
                    </mxGeometry>
                </mxCell>
                <mxCell id="Apy66p_QesDcBcl1Cka--81" value="" style="shape=partialRectangle;collapsible=0;dropTarget=0;pointerEvents=0;fillColor=none;top=0;left=0;bottom=0;right=0;points=[[0,0.5],[1,0.5]];portConstraint=eastwest;" parent="Apy66p_QesDcBcl1Cka--77" vertex="1">
                    <mxGeometry y="60" width="180" height="30" as="geometry"/>
                </mxCell>
                <mxCell id="Apy66p_QesDcBcl1Cka--82" value="" style="shape=partialRectangle;connectable=0;fillColor=none;top=0;left=0;bottom=0;right=0;editable=1;overflow=hidden;" parent="Apy66p_QesDcBcl1Cka--81" vertex="1">
                    <mxGeometry width="30" height="30" as="geometry">
                        <mxRectangle width="30" height="30" as="alternateBounds"/>
                    </mxGeometry>
                </mxCell>
                <mxCell id="Apy66p_QesDcBcl1Cka--83" value="Session data" style="shape=partialRectangle;connectable=0;fillColor=none;top=0;left=0;bottom=0;right=0;align=left;spacingLeft=6;overflow=hidden;" parent="Apy66p_QesDcBcl1Cka--81" vertex="1">
                    <mxGeometry x="30" width="150" height="30" as="geometry">
                        <mxRectangle width="150" height="30" as="alternateBounds"/>
                    </mxGeometry>
                </mxCell>
                <mxCell id="Apy66p_QesDcBcl1Cka--84" value="" style="shape=partialRectangle;collapsible=0;dropTarget=0;pointerEvents=0;fillColor=none;top=0;left=0;bottom=0;right=0;points=[[0,0.5],[1,0.5]];portConstraint=eastwest;" parent="Apy66p_QesDcBcl1Cka--77" vertex="1">
                    <mxGeometry y="90" width="180" height="30" as="geometry"/>
                </mxCell>
                <mxCell id="Apy66p_QesDcBcl1Cka--85" value="" style="shape=partialRectangle;connectable=0;fillColor=none;top=0;left=0;bottom=0;right=0;editable=1;overflow=hidden;" parent="Apy66p_QesDcBcl1Cka--84" vertex="1">
                    <mxGeometry width="30" height="30" as="geometry">
                        <mxRectangle width="30" height="30" as="alternateBounds"/>
                    </mxGeometry>
                </mxCell>
                <mxCell id="Apy66p_QesDcBcl1Cka--86" value="Expire date" style="shape=partialRectangle;connectable=0;fillColor=none;top=0;left=0;bottom=0;right=0;align=left;spacingLeft=6;overflow=hidden;" parent="Apy66p_QesDcBcl1Cka--84" vertex="1">
                    <mxGeometry x="30" width="150" height="30" as="geometry">
                        <mxRectangle width="150" height="30" as="alternateBounds"/>
                    </mxGeometry>
                </mxCell>
                <mxCell id="Apy66p_QesDcBcl1Cka--93" value="" style="edgeStyle=entityRelationEdgeStyle;fontSize=12;html=1;endArrow=ERmany;startArrow=ERmany;" parent="KSzaHcFA-20L5qhvlI6W-129" source="Apy66p_QesDcBcl1Cka--51" target="Apy66p_QesDcBcl1Cka--11" edge="1">
                    <mxGeometry width="100" height="100" relative="1" as="geometry">
                        <mxPoint x="440" y="160" as="sourcePoint"/>
                        <mxPoint x="540" y="60" as="targetPoint"/>
                    </mxGeometry>
                </mxCell>
                <mxCell id="Apy66p_QesDcBcl1Cka--96" value="" style="edgeStyle=entityRelationEdgeStyle;fontSize=12;html=1;endArrow=ERoneToMany;" parent="KSzaHcFA-20L5qhvlI6W-129" source="Apy66p_QesDcBcl1Cka--64" target="Apy66p_QesDcBcl1Cka--51" edge="1">
                    <mxGeometry width="100" height="100" relative="1" as="geometry">
                        <mxPoint x="440" y="160" as="sourcePoint"/>
                        <mxPoint x="540" y="60" as="targetPoint"/>
                    </mxGeometry>
                </mxCell>
                <mxCell id="Apy66p_QesDcBcl1Cka--101" value="" style="group" parent="KSzaHcFA-20L5qhvlI6W-129" vertex="1" connectable="0">
                    <mxGeometry width="460" height="350" as="geometry"/>
                </mxCell>
                <mxCell id="Apy66p_QesDcBcl1Cka--97" value="" style="endArrow=none;dashed=1;html=1;" parent="Apy66p_QesDcBcl1Cka--101" edge="1">
                    <mxGeometry width="50" height="50" relative="1" as="geometry">
                        <mxPoint y="350" as="sourcePoint"/>
                        <mxPoint x="460" y="350" as="targetPoint"/>
                    </mxGeometry>
                </mxCell>
                <mxCell id="Apy66p_QesDcBcl1Cka--98" value="" style="endArrow=none;dashed=1;html=1;" parent="Apy66p_QesDcBcl1Cka--101" edge="1">
                    <mxGeometry width="50" height="50" relative="1" as="geometry">
                        <mxPoint x="460" as="sourcePoint"/>
                        <mxPoint x="460" y="350" as="targetPoint"/>
                    </mxGeometry>
                </mxCell>
                <mxCell id="Apy66p_QesDcBcl1Cka--99" value="" style="endArrow=none;dashed=1;html=1;" parent="Apy66p_QesDcBcl1Cka--101" edge="1">
                    <mxGeometry width="50" height="50" relative="1" as="geometry">
                        <mxPoint as="sourcePoint"/>
                        <mxPoint x="460" as="targetPoint"/>
                    </mxGeometry>
                </mxCell>
                <mxCell id="Apy66p_QesDcBcl1Cka--100" value="" style="endArrow=none;dashed=1;html=1;" parent="Apy66p_QesDcBcl1Cka--101" edge="1">
                    <mxGeometry width="50" height="50" relative="1" as="geometry">
                        <mxPoint y="350" as="sourcePoint"/>
                        <mxPoint as="targetPoint"/>
                    </mxGeometry>
                </mxCell>
                <mxCell id="Apy66p_QesDcBcl1Cka--103" value="&lt;b&gt;Django default DB tables&lt;/b&gt;" style="text;html=1;strokeColor=none;fillColor=none;align=center;verticalAlign=middle;whiteSpace=wrap;rounded=0;" parent="Apy66p_QesDcBcl1Cka--101" vertex="1">
                    <mxGeometry x="145" y="10" width="170" height="20" as="geometry"/>
                </mxCell>
                <mxCell id="KSzaHcFA-20L5qhvlI6W-133" value="" style="edgeStyle=entityRelationEdgeStyle;fontSize=12;html=1;endArrow=ERoneToMany;startSize=11;endSize=11;sourcePerimeterSpacing=0;targetPerimeterSpacing=0;jumpSize=6;" parent="1" source="KSzaHcFA-20L5qhvlI6W-100" target="KSzaHcFA-20L5qhvlI6W-53" edge="1">
                    <mxGeometry width="100" height="100" relative="1" as="geometry">
                        <mxPoint x="280" y="690" as="sourcePoint"/>
                        <mxPoint x="380" y="590" as="targetPoint"/>
                    </mxGeometry>
                </mxCell>
                <mxCell id="KSzaHcFA-20L5qhvlI6W-139" value="&lt;div&gt;Ask&lt;/div&gt;" style="edgeLabel;html=1;align=center;verticalAlign=middle;resizable=0;points=[];" parent="KSzaHcFA-20L5qhvlI6W-133" vertex="1" connectable="0">
                    <mxGeometry x="0.1409" relative="1" as="geometry">
                        <mxPoint x="-20" y="-20" as="offset"/>
                    </mxGeometry>
                </mxCell>
                <mxCell id="KSzaHcFA-20L5qhvlI6W-140" value="" style="edgeStyle=entityRelationEdgeStyle;fontSize=12;html=1;endArrow=ERmany;startSize=14;endSize=14;sourcePerimeterSpacing=0;targetPerimeterSpacing=0;exitX=1;exitY=0.5;exitDx=0;exitDy=0;" parent="1" source="KSzaHcFA-20L5qhvlI6W-91" target="KSzaHcFA-20L5qhvlI6W-103" edge="1">
                    <mxGeometry width="100" height="100" relative="1" as="geometry">
                        <mxPoint x="370" y="680" as="sourcePoint"/>
                        <mxPoint x="470" y="580" as="targetPoint"/>
                    </mxGeometry>
                </mxCell>
                <mxCell id="KSzaHcFA-20L5qhvlI6W-141" value="" style="edgeStyle=entityRelationEdgeStyle;fontSize=12;html=1;endArrow=ERmany;startSize=14;endSize=14;sourcePerimeterSpacing=0;targetPerimeterSpacing=0;" parent="1" source="KSzaHcFA-20L5qhvlI6W-65" target="KSzaHcFA-20L5qhvlI6W-103" edge="1">
                    <mxGeometry width="100" height="100" relative="1" as="geometry">
                        <mxPoint x="360" y="700" as="sourcePoint"/>
                        <mxPoint x="460" y="600" as="targetPoint"/>
                    </mxGeometry>
                </mxCell>
                <mxCell id="KSzaHcFA-20L5qhvlI6W-142" value="" style="edgeStyle=entityRelationEdgeStyle;fontSize=12;html=1;endArrow=ERoneToMany;startSize=14;endSize=14;sourcePerimeterSpacing=0;targetPerimeterSpacing=0;" parent="1" source="KSzaHcFA-20L5qhvlI6W-123" target="KSzaHcFA-20L5qhvlI6W-56" edge="1">
                    <mxGeometry width="100" height="100" relative="1" as="geometry">
                        <mxPoint x="290" y="790" as="sourcePoint"/>
                        <mxPoint x="390" y="690" as="targetPoint"/>
                    </mxGeometry>
                </mxCell>
                <mxCell id="KSzaHcFA-20L5qhvlI6W-144" value="" style="edgeStyle=entityRelationEdgeStyle;fontSize=12;html=1;endArrow=ERmany;startSize=14;endSize=14;sourcePerimeterSpacing=0;targetPerimeterSpacing=0;" parent="1" source="KSzaHcFA-20L5qhvlI6W-62" target="KSzaHcFA-20L5qhvlI6W-65" edge="1">
                    <mxGeometry width="100" height="100" relative="1" as="geometry">
                        <mxPoint x="370" y="760" as="sourcePoint"/>
                        <mxPoint x="560" y="540" as="targetPoint"/>
                    </mxGeometry>
                </mxCell>
                <mxCell id="KSzaHcFA-20L5qhvlI6W-146" value="" style="edgeStyle=entityRelationEdgeStyle;fontSize=12;html=1;endArrow=ERmany;startSize=14;endSize=14;sourcePerimeterSpacing=0;targetPerimeterSpacing=0;" parent="1" source="KSzaHcFA-20L5qhvlI6W-94" target="KSzaHcFA-20L5qhvlI6W-117" edge="1">
                    <mxGeometry width="100" height="100" relative="1" as="geometry">
                        <mxPoint x="410" y="390" as="sourcePoint"/>
                        <mxPoint x="420" y="410" as="targetPoint"/>
                    </mxGeometry>
                </mxCell>
                <mxCell id="KSzaHcFA-20L5qhvlI6W-147" value="Create" style="edgeLabel;html=1;align=center;verticalAlign=middle;resizable=0;points=[];" parent="KSzaHcFA-20L5qhvlI6W-146" vertex="1" connectable="0">
                    <mxGeometry x="-0.3264" y="1" relative="1" as="geometry">
                        <mxPoint as="offset"/>
                    </mxGeometry>
                </mxCell>
                <mxCell id="KSzaHcFA-20L5qhvlI6W-149" value="" style="edgeStyle=entityRelationEdgeStyle;fontSize=12;html=1;endArrow=ERmany;startArrow=ERmany;startSize=14;endSize=14;sourcePerimeterSpacing=0;targetPerimeterSpacing=0;" parent="1" source="KSzaHcFA-20L5qhvlI6W-97" target="KSzaHcFA-20L5qhvlI6W-120" edge="1">
                    <mxGeometry width="100" height="100" relative="1" as="geometry">
                        <mxPoint x="540" y="710" as="sourcePoint"/>
                        <mxPoint x="640" y="610" as="targetPoint"/>
                    </mxGeometry>
                </mxCell>
                <mxCell id="KSzaHcFA-20L5qhvlI6W-150" value="Register" style="edgeLabel;html=1;align=center;verticalAlign=middle;resizable=0;points=[];" parent="KSzaHcFA-20L5qhvlI6W-149" vertex="1" connectable="0">
                    <mxGeometry x="-0.0239" y="-2" relative="1" as="geometry">
                        <mxPoint as="offset"/>
                    </mxGeometry>
                </mxCell>
            </root>
        </mxGraphModel>
    </diagram>
    <diagram id="zzJQ5BisdILKj1ICCtQO" name="Page-2">
        <mxGraphModel dx="2114" dy="907" grid="1" gridSize="10" guides="1" tooltips="1" connect="1" arrows="1" fold="1" page="1" pageScale="1" pageWidth="827" pageHeight="1169" math="0" shadow="0">
            <root>
                <mxCell id="E0j1BQQdfri8mgkAOBtm-0"/>
                <mxCell id="E0j1BQQdfri8mgkAOBtm-1" parent="E0j1BQQdfri8mgkAOBtm-0"/>
                <mxCell id="E0j1BQQdfri8mgkAOBtm-2" value="" style="edgeStyle=entityRelationEdgeStyle;fontSize=12;html=1;endArrow=ERmany;startArrow=ERmany;" parent="E0j1BQQdfri8mgkAOBtm-1" source="E0j1BQQdfri8mgkAOBtm-66" target="E0j1BQQdfri8mgkAOBtm-30" edge="1">
                    <mxGeometry width="100" height="100" relative="1" as="geometry">
                        <mxPoint x="55" y="600" as="sourcePoint"/>
                        <mxPoint x="140" y="360" as="targetPoint"/>
                    </mxGeometry>
                </mxCell>
                <mxCell id="E0j1BQQdfri8mgkAOBtm-3" value="Question" style="shape=table;startSize=30;container=1;collapsible=1;childLayout=tableLayout;fixedRows=1;rowLines=0;fontStyle=1;align=center;resizeLast=1;hachureGap=4;pointerEvents=0;" parent="E0j1BQQdfri8mgkAOBtm-1" vertex="1">
                    <mxGeometry x="140" y="580" width="180" height="150" as="geometry"/>
                </mxCell>
                <mxCell id="E0j1BQQdfri8mgkAOBtm-4" value="" style="shape=partialRectangle;collapsible=0;dropTarget=0;pointerEvents=0;fillColor=none;top=0;left=0;bottom=1;right=0;points=[[0,0.5],[1,0.5]];portConstraint=eastwest;" parent="E0j1BQQdfri8mgkAOBtm-3" vertex="1">
                    <mxGeometry y="30" width="180" height="30" as="geometry"/>
                </mxCell>
                <mxCell id="E0j1BQQdfri8mgkAOBtm-5" value="PK" style="shape=partialRectangle;connectable=0;fillColor=none;top=0;left=0;bottom=0;right=0;fontStyle=1;overflow=hidden;" parent="E0j1BQQdfri8mgkAOBtm-4" vertex="1">
                    <mxGeometry width="30" height="30" as="geometry">
                        <mxRectangle width="30" height="30" as="alternateBounds"/>
                    </mxGeometry>
                </mxCell>
                <mxCell id="E0j1BQQdfri8mgkAOBtm-6" value="ID" style="shape=partialRectangle;connectable=0;fillColor=none;top=0;left=0;bottom=0;right=0;align=left;spacingLeft=6;fontStyle=5;overflow=hidden;" parent="E0j1BQQdfri8mgkAOBtm-4" vertex="1">
                    <mxGeometry x="30" width="150" height="30" as="geometry">
                        <mxRectangle width="150" height="30" as="alternateBounds"/>
                    </mxGeometry>
                </mxCell>
                <mxCell id="E0j1BQQdfri8mgkAOBtm-7" value="" style="shape=partialRectangle;collapsible=0;dropTarget=0;pointerEvents=0;fillColor=none;top=0;left=0;bottom=0;right=0;points=[[0,0.5],[1,0.5]];portConstraint=eastwest;" parent="E0j1BQQdfri8mgkAOBtm-3" vertex="1">
                    <mxGeometry y="60" width="180" height="30" as="geometry"/>
                </mxCell>
                <mxCell id="E0j1BQQdfri8mgkAOBtm-8" value="" style="shape=partialRectangle;connectable=0;fillColor=none;top=0;left=0;bottom=0;right=0;editable=1;overflow=hidden;" parent="E0j1BQQdfri8mgkAOBtm-7" vertex="1">
                    <mxGeometry width="30" height="30" as="geometry">
                        <mxRectangle width="30" height="30" as="alternateBounds"/>
                    </mxGeometry>
                </mxCell>
                <mxCell id="E0j1BQQdfri8mgkAOBtm-9" value="Title" style="shape=partialRectangle;connectable=0;fillColor=none;top=0;left=0;bottom=0;right=0;align=left;spacingLeft=6;overflow=hidden;" parent="E0j1BQQdfri8mgkAOBtm-7" vertex="1">
                    <mxGeometry x="30" width="150" height="30" as="geometry">
                        <mxRectangle width="150" height="30" as="alternateBounds"/>
                    </mxGeometry>
                </mxCell>
                <mxCell id="E0j1BQQdfri8mgkAOBtm-10" value="" style="shape=partialRectangle;collapsible=0;dropTarget=0;pointerEvents=0;fillColor=none;top=0;left=0;bottom=0;right=0;points=[[0,0.5],[1,0.5]];portConstraint=eastwest;" parent="E0j1BQQdfri8mgkAOBtm-3" vertex="1">
                    <mxGeometry y="90" width="180" height="30" as="geometry"/>
                </mxCell>
                <mxCell id="E0j1BQQdfri8mgkAOBtm-11" value="" style="shape=partialRectangle;connectable=0;fillColor=none;top=0;left=0;bottom=0;right=0;editable=1;overflow=hidden;" parent="E0j1BQQdfri8mgkAOBtm-10" vertex="1">
                    <mxGeometry width="30" height="30" as="geometry">
                        <mxRectangle width="30" height="30" as="alternateBounds"/>
                    </mxGeometry>
                </mxCell>
                <mxCell id="E0j1BQQdfri8mgkAOBtm-12" value="Text" style="shape=partialRectangle;connectable=0;fillColor=none;top=0;left=0;bottom=0;right=0;align=left;spacingLeft=6;overflow=hidden;" parent="E0j1BQQdfri8mgkAOBtm-10" vertex="1">
                    <mxGeometry x="30" width="150" height="30" as="geometry">
                        <mxRectangle width="150" height="30" as="alternateBounds"/>
                    </mxGeometry>
                </mxCell>
                <mxCell id="qu-U0W3mSs8zjcbtvWfx-25" value="" style="shape=partialRectangle;collapsible=0;dropTarget=0;pointerEvents=0;fillColor=none;top=0;left=0;bottom=0;right=0;points=[[0,0.5],[1,0.5]];portConstraint=eastwest;" parent="E0j1BQQdfri8mgkAOBtm-3" vertex="1">
                    <mxGeometry y="120" width="180" height="30" as="geometry"/>
                </mxCell>
                <mxCell id="qu-U0W3mSs8zjcbtvWfx-26" value="" style="shape=partialRectangle;connectable=0;fillColor=none;top=0;left=0;bottom=0;right=0;editable=1;overflow=hidden;" parent="qu-U0W3mSs8zjcbtvWfx-25" vertex="1">
                    <mxGeometry width="30" height="30" as="geometry">
                        <mxRectangle width="30" height="30" as="alternateBounds"/>
                    </mxGeometry>
                </mxCell>
                <mxCell id="qu-U0W3mSs8zjcbtvWfx-27" value="Picture" style="shape=partialRectangle;connectable=0;fillColor=none;top=0;left=0;bottom=0;right=0;align=left;spacingLeft=6;overflow=hidden;" parent="qu-U0W3mSs8zjcbtvWfx-25" vertex="1">
                    <mxGeometry x="30" width="150" height="30" as="geometry">
                        <mxRectangle width="150" height="30" as="alternateBounds"/>
                    </mxGeometry>
                </mxCell>
                <mxCell id="E0j1BQQdfri8mgkAOBtm-16" value="AbstractAnswer" style="shape=table;startSize=30;container=1;collapsible=1;childLayout=tableLayout;fixedRows=1;rowLines=0;fontStyle=1;align=center;resizeLast=1;hachureGap=4;pointerEvents=0;" parent="E0j1BQQdfri8mgkAOBtm-1" vertex="1">
                    <mxGeometry x="710" y="570" width="180" height="120" as="geometry"/>
                </mxCell>
                <mxCell id="E0j1BQQdfri8mgkAOBtm-17" value="" style="shape=partialRectangle;collapsible=0;dropTarget=0;pointerEvents=0;fillColor=none;top=0;left=0;bottom=1;right=0;points=[[0,0.5],[1,0.5]];portConstraint=eastwest;" parent="E0j1BQQdfri8mgkAOBtm-16" vertex="1">
                    <mxGeometry y="30" width="180" height="30" as="geometry"/>
                </mxCell>
                <mxCell id="E0j1BQQdfri8mgkAOBtm-18" value="PK" style="shape=partialRectangle;connectable=0;fillColor=none;top=0;left=0;bottom=0;right=0;fontStyle=1;overflow=hidden;" parent="E0j1BQQdfri8mgkAOBtm-17" vertex="1">
                    <mxGeometry width="30" height="30" as="geometry">
                        <mxRectangle width="30" height="30" as="alternateBounds"/>
                    </mxGeometry>
                </mxCell>
                <mxCell id="E0j1BQQdfri8mgkAOBtm-19" value="ID" style="shape=partialRectangle;connectable=0;fillColor=none;top=0;left=0;bottom=0;right=0;align=left;spacingLeft=6;fontStyle=5;overflow=hidden;" parent="E0j1BQQdfri8mgkAOBtm-17" vertex="1">
                    <mxGeometry x="30" width="150" height="30" as="geometry">
                        <mxRectangle width="150" height="30" as="alternateBounds"/>
                    </mxGeometry>
                </mxCell>
                <mxCell id="E0j1BQQdfri8mgkAOBtm-20" value="" style="shape=partialRectangle;collapsible=0;dropTarget=0;pointerEvents=0;fillColor=none;top=0;left=0;bottom=0;right=0;points=[[0,0.5],[1,0.5]];portConstraint=eastwest;" parent="E0j1BQQdfri8mgkAOBtm-16" vertex="1">
                    <mxGeometry y="60" width="180" height="30" as="geometry"/>
                </mxCell>
                <mxCell id="E0j1BQQdfri8mgkAOBtm-21" value="" style="shape=partialRectangle;connectable=0;fillColor=none;top=0;left=0;bottom=0;right=0;editable=1;overflow=hidden;" parent="E0j1BQQdfri8mgkAOBtm-20" vertex="1">
                    <mxGeometry width="30" height="30" as="geometry">
                        <mxRectangle width="30" height="30" as="alternateBounds"/>
                    </mxGeometry>
                </mxCell>
                <mxCell id="E0j1BQQdfri8mgkAOBtm-22" value="Text" style="shape=partialRectangle;connectable=0;fillColor=none;top=0;left=0;bottom=0;right=0;align=left;spacingLeft=6;overflow=hidden;" parent="E0j1BQQdfri8mgkAOBtm-20" vertex="1">
                    <mxGeometry x="30" width="150" height="30" as="geometry">
                        <mxRectangle width="150" height="30" as="alternateBounds"/>
                    </mxGeometry>
                </mxCell>
                <mxCell id="E0j1BQQdfri8mgkAOBtm-26" value="" style="shape=partialRectangle;collapsible=0;dropTarget=0;pointerEvents=0;fillColor=none;top=0;left=0;bottom=0;right=0;points=[[0,0.5],[1,0.5]];portConstraint=eastwest;" parent="E0j1BQQdfri8mgkAOBtm-16" vertex="1">
                    <mxGeometry y="90" width="180" height="30" as="geometry"/>
                </mxCell>
                <mxCell id="E0j1BQQdfri8mgkAOBtm-27" value="" style="shape=partialRectangle;connectable=0;fillColor=none;top=0;left=0;bottom=0;right=0;editable=1;overflow=hidden;" parent="E0j1BQQdfri8mgkAOBtm-26" vertex="1">
                    <mxGeometry width="30" height="30" as="geometry">
                        <mxRectangle width="30" height="30" as="alternateBounds"/>
                    </mxGeometry>
                </mxCell>
                <mxCell id="E0j1BQQdfri8mgkAOBtm-28" value="Picture" style="shape=partialRectangle;connectable=0;fillColor=none;top=0;left=0;bottom=0;right=0;align=left;spacingLeft=6;overflow=hidden;" parent="E0j1BQQdfri8mgkAOBtm-26" vertex="1">
                    <mxGeometry x="30" width="150" height="30" as="geometry">
                        <mxRectangle width="150" height="30" as="alternateBounds"/>
                    </mxGeometry>
                </mxCell>
                <mxCell id="E0j1BQQdfri8mgkAOBtm-30" value="User" style="shape=table;startSize=30;container=1;collapsible=1;childLayout=tableLayout;fixedRows=1;rowLines=0;fontStyle=1;align=center;resizeLast=1;hachureGap=4;pointerEvents=0;" parent="E0j1BQQdfri8mgkAOBtm-1" vertex="1">
                    <mxGeometry x="140" y="315" width="180" height="180" as="geometry"/>
                </mxCell>
                <mxCell id="E0j1BQQdfri8mgkAOBtm-31" value="" style="shape=partialRectangle;collapsible=0;dropTarget=0;pointerEvents=0;fillColor=none;top=0;left=0;bottom=1;right=0;points=[[0,0.5],[1,0.5]];portConstraint=eastwest;" parent="E0j1BQQdfri8mgkAOBtm-30" vertex="1">
                    <mxGeometry y="30" width="180" height="30" as="geometry"/>
                </mxCell>
                <mxCell id="E0j1BQQdfri8mgkAOBtm-32" value="PK" style="shape=partialRectangle;connectable=0;fillColor=none;top=0;left=0;bottom=0;right=0;fontStyle=1;overflow=hidden;" parent="E0j1BQQdfri8mgkAOBtm-31" vertex="1">
                    <mxGeometry width="30" height="30" as="geometry">
                        <mxRectangle width="30" height="30" as="alternateBounds"/>
                    </mxGeometry>
                </mxCell>
                <mxCell id="E0j1BQQdfri8mgkAOBtm-33" value="Email" style="shape=partialRectangle;connectable=0;fillColor=none;top=0;left=0;bottom=0;right=0;align=left;spacingLeft=6;fontStyle=5;overflow=hidden;" parent="E0j1BQQdfri8mgkAOBtm-31" vertex="1">
                    <mxGeometry x="30" width="150" height="30" as="geometry">
                        <mxRectangle width="150" height="30" as="alternateBounds"/>
                    </mxGeometry>
                </mxCell>
                <mxCell id="qu-U0W3mSs8zjcbtvWfx-16" value="" style="shape=partialRectangle;collapsible=0;dropTarget=0;pointerEvents=0;fillColor=none;top=0;left=0;bottom=0;right=0;points=[[0,0.5],[1,0.5]];portConstraint=eastwest;" parent="E0j1BQQdfri8mgkAOBtm-30" vertex="1">
                    <mxGeometry y="60" width="180" height="30" as="geometry"/>
                </mxCell>
                <mxCell id="qu-U0W3mSs8zjcbtvWfx-17" value="" style="shape=partialRectangle;connectable=0;fillColor=none;top=0;left=0;bottom=0;right=0;editable=1;overflow=hidden;" parent="qu-U0W3mSs8zjcbtvWfx-16" vertex="1">
                    <mxGeometry width="30" height="30" as="geometry">
                        <mxRectangle width="30" height="30" as="alternateBounds"/>
                    </mxGeometry>
                </mxCell>
                <mxCell id="qu-U0W3mSs8zjcbtvWfx-18" value="Login" style="shape=partialRectangle;connectable=0;fillColor=none;top=0;left=0;bottom=0;right=0;align=left;spacingLeft=6;overflow=hidden;" parent="qu-U0W3mSs8zjcbtvWfx-16" vertex="1">
                    <mxGeometry x="30" width="150" height="30" as="geometry">
                        <mxRectangle width="150" height="30" as="alternateBounds"/>
                    </mxGeometry>
                </mxCell>
                <mxCell id="E0j1BQQdfri8mgkAOBtm-34" value="" style="shape=partialRectangle;collapsible=0;dropTarget=0;pointerEvents=0;fillColor=none;top=0;left=0;bottom=0;right=0;points=[[0,0.5],[1,0.5]];portConstraint=eastwest;" parent="E0j1BQQdfri8mgkAOBtm-30" vertex="1">
                    <mxGeometry y="90" width="180" height="30" as="geometry"/>
                </mxCell>
                <mxCell id="E0j1BQQdfri8mgkAOBtm-35" value="" style="shape=partialRectangle;connectable=0;fillColor=none;top=0;left=0;bottom=0;right=0;editable=1;overflow=hidden;" parent="E0j1BQQdfri8mgkAOBtm-34" vertex="1">
                    <mxGeometry width="30" height="30" as="geometry">
                        <mxRectangle width="30" height="30" as="alternateBounds"/>
                    </mxGeometry>
                </mxCell>
                <mxCell id="E0j1BQQdfri8mgkAOBtm-36" value="First name" style="shape=partialRectangle;connectable=0;fillColor=none;top=0;left=0;bottom=0;right=0;align=left;spacingLeft=6;overflow=hidden;" parent="E0j1BQQdfri8mgkAOBtm-34" vertex="1">
                    <mxGeometry x="30" width="150" height="30" as="geometry">
                        <mxRectangle width="150" height="30" as="alternateBounds"/>
                    </mxGeometry>
                </mxCell>
                <mxCell id="E0j1BQQdfri8mgkAOBtm-37" value="" style="shape=partialRectangle;collapsible=0;dropTarget=0;pointerEvents=0;fillColor=none;top=0;left=0;bottom=0;right=0;points=[[0,0.5],[1,0.5]];portConstraint=eastwest;" parent="E0j1BQQdfri8mgkAOBtm-30" vertex="1">
                    <mxGeometry y="120" width="180" height="30" as="geometry"/>
                </mxCell>
                <mxCell id="E0j1BQQdfri8mgkAOBtm-38" value="" style="shape=partialRectangle;connectable=0;fillColor=none;top=0;left=0;bottom=0;right=0;editable=1;overflow=hidden;" parent="E0j1BQQdfri8mgkAOBtm-37" vertex="1">
                    <mxGeometry width="30" height="30" as="geometry">
                        <mxRectangle width="30" height="30" as="alternateBounds"/>
                    </mxGeometry>
                </mxCell>
                <mxCell id="E0j1BQQdfri8mgkAOBtm-39" value="Last name" style="shape=partialRectangle;connectable=0;fillColor=none;top=0;left=0;bottom=0;right=0;align=left;spacingLeft=6;overflow=hidden;" parent="E0j1BQQdfri8mgkAOBtm-37" vertex="1">
                    <mxGeometry x="30" width="150" height="30" as="geometry">
                        <mxRectangle width="150" height="30" as="alternateBounds"/>
                    </mxGeometry>
                </mxCell>
                <mxCell id="E0j1BQQdfri8mgkAOBtm-40" value="" style="shape=partialRectangle;collapsible=0;dropTarget=0;pointerEvents=0;fillColor=none;top=0;left=0;bottom=0;right=0;points=[[0,0.5],[1,0.5]];portConstraint=eastwest;" parent="E0j1BQQdfri8mgkAOBtm-30" vertex="1">
                    <mxGeometry y="150" width="180" height="30" as="geometry"/>
                </mxCell>
                <mxCell id="E0j1BQQdfri8mgkAOBtm-41" value="" style="shape=partialRectangle;connectable=0;fillColor=none;top=0;left=0;bottom=0;right=0;editable=1;overflow=hidden;" parent="E0j1BQQdfri8mgkAOBtm-40" vertex="1">
                    <mxGeometry width="30" height="30" as="geometry">
                        <mxRectangle width="30" height="30" as="alternateBounds"/>
                    </mxGeometry>
                </mxCell>
                <mxCell id="E0j1BQQdfri8mgkAOBtm-42" value="Karma" style="shape=partialRectangle;connectable=0;fillColor=none;top=0;left=0;bottom=0;right=0;align=left;spacingLeft=6;overflow=hidden;" parent="E0j1BQQdfri8mgkAOBtm-40" vertex="1">
                    <mxGeometry x="30" width="150" height="30" as="geometry">
                        <mxRectangle width="150" height="30" as="alternateBounds"/>
                    </mxGeometry>
                </mxCell>
                <mxCell id="E0j1BQQdfri8mgkAOBtm-43" value="Rating" style="shape=table;startSize=30;container=1;collapsible=1;childLayout=tableLayout;fixedRows=1;rowLines=0;fontStyle=1;align=center;resizeLast=1;hachureGap=4;pointerEvents=0;" parent="E0j1BQQdfri8mgkAOBtm-1" vertex="1">
                    <mxGeometry x="720" y="315" width="180" height="90" as="geometry"/>
                </mxCell>
                <mxCell id="E0j1BQQdfri8mgkAOBtm-44" value="" style="shape=partialRectangle;collapsible=0;dropTarget=0;pointerEvents=0;fillColor=none;top=0;left=0;bottom=1;right=0;points=[[0,0.5],[1,0.5]];portConstraint=eastwest;" parent="E0j1BQQdfri8mgkAOBtm-43" vertex="1">
                    <mxGeometry y="30" width="180" height="30" as="geometry"/>
                </mxCell>
                <mxCell id="E0j1BQQdfri8mgkAOBtm-45" value="PK" style="shape=partialRectangle;connectable=0;fillColor=none;top=0;left=0;bottom=0;right=0;fontStyle=1;overflow=hidden;" parent="E0j1BQQdfri8mgkAOBtm-44" vertex="1">
                    <mxGeometry width="30" height="30" as="geometry">
                        <mxRectangle width="30" height="30" as="alternateBounds"/>
                    </mxGeometry>
                </mxCell>
                <mxCell id="E0j1BQQdfri8mgkAOBtm-46" value="ID" style="shape=partialRectangle;connectable=0;fillColor=none;top=0;left=0;bottom=0;right=0;align=left;spacingLeft=6;fontStyle=5;overflow=hidden;" parent="E0j1BQQdfri8mgkAOBtm-44" vertex="1">
                    <mxGeometry x="30" width="150" height="30" as="geometry">
                        <mxRectangle width="150" height="30" as="alternateBounds"/>
                    </mxGeometry>
                </mxCell>
                <mxCell id="E0j1BQQdfri8mgkAOBtm-47" value="" style="shape=partialRectangle;collapsible=0;dropTarget=0;pointerEvents=0;fillColor=none;top=0;left=0;bottom=0;right=0;points=[[0,0.5],[1,0.5]];portConstraint=eastwest;" parent="E0j1BQQdfri8mgkAOBtm-43" vertex="1">
                    <mxGeometry y="60" width="180" height="30" as="geometry"/>
                </mxCell>
                <mxCell id="E0j1BQQdfri8mgkAOBtm-48" value="" style="shape=partialRectangle;connectable=0;fillColor=none;top=0;left=0;bottom=0;right=0;editable=1;overflow=hidden;" parent="E0j1BQQdfri8mgkAOBtm-47" vertex="1">
                    <mxGeometry width="30" height="30" as="geometry">
                        <mxRectangle width="30" height="30" as="alternateBounds"/>
                    </mxGeometry>
                </mxCell>
                <mxCell id="E0j1BQQdfri8mgkAOBtm-49" value="Type" style="shape=partialRectangle;connectable=0;fillColor=none;top=0;left=0;bottom=0;right=0;align=left;spacingLeft=6;overflow=hidden;" parent="E0j1BQQdfri8mgkAOBtm-47" vertex="1">
                    <mxGeometry x="30" width="150" height="30" as="geometry">
                        <mxRectangle width="150" height="30" as="alternateBounds"/>
                    </mxGeometry>
                </mxCell>
                <mxCell id="E0j1BQQdfri8mgkAOBtm-50" value="Subject" style="shape=table;startSize=30;container=1;collapsible=1;childLayout=tableLayout;fixedRows=1;rowLines=0;fontStyle=1;align=center;resizeLast=1;hachureGap=4;pointerEvents=0;" parent="E0j1BQQdfri8mgkAOBtm-1" vertex="1">
                    <mxGeometry x="450" y="470" width="180" height="180" as="geometry"/>
                </mxCell>
                <mxCell id="E0j1BQQdfri8mgkAOBtm-51" value="" style="shape=partialRectangle;collapsible=0;dropTarget=0;pointerEvents=0;fillColor=none;top=0;left=0;bottom=1;right=0;points=[[0,0.5],[1,0.5]];portConstraint=eastwest;" parent="E0j1BQQdfri8mgkAOBtm-50" vertex="1">
                    <mxGeometry y="30" width="180" height="30" as="geometry"/>
                </mxCell>
                <mxCell id="E0j1BQQdfri8mgkAOBtm-52" value="PK" style="shape=partialRectangle;connectable=0;fillColor=none;top=0;left=0;bottom=0;right=0;fontStyle=1;overflow=hidden;" parent="E0j1BQQdfri8mgkAOBtm-51" vertex="1">
                    <mxGeometry width="30" height="30" as="geometry">
                        <mxRectangle width="30" height="30" as="alternateBounds"/>
                    </mxGeometry>
                </mxCell>
                <mxCell id="E0j1BQQdfri8mgkAOBtm-53" value="ID" style="shape=partialRectangle;connectable=0;fillColor=none;top=0;left=0;bottom=0;right=0;align=left;spacingLeft=6;fontStyle=5;overflow=hidden;" parent="E0j1BQQdfri8mgkAOBtm-51" vertex="1">
                    <mxGeometry x="30" width="150" height="30" as="geometry">
                        <mxRectangle width="150" height="30" as="alternateBounds"/>
                    </mxGeometry>
                </mxCell>
                <mxCell id="E0j1BQQdfri8mgkAOBtm-54" value="" style="shape=partialRectangle;collapsible=0;dropTarget=0;pointerEvents=0;fillColor=none;top=0;left=0;bottom=0;right=0;points=[[0,0.5],[1,0.5]];portConstraint=eastwest;" parent="E0j1BQQdfri8mgkAOBtm-50" vertex="1">
                    <mxGeometry y="60" width="180" height="30" as="geometry"/>
                </mxCell>
                <mxCell id="E0j1BQQdfri8mgkAOBtm-55" value="" style="shape=partialRectangle;connectable=0;fillColor=none;top=0;left=0;bottom=0;right=0;editable=1;overflow=hidden;" parent="E0j1BQQdfri8mgkAOBtm-54" vertex="1">
                    <mxGeometry width="30" height="30" as="geometry">
                        <mxRectangle width="30" height="30" as="alternateBounds"/>
                    </mxGeometry>
                </mxCell>
                <mxCell id="E0j1BQQdfri8mgkAOBtm-56" value="Name" style="shape=partialRectangle;connectable=0;fillColor=none;top=0;left=0;bottom=0;right=0;align=left;spacingLeft=6;overflow=hidden;" parent="E0j1BQQdfri8mgkAOBtm-54" vertex="1">
                    <mxGeometry x="30" width="150" height="30" as="geometry">
                        <mxRectangle width="150" height="30" as="alternateBounds"/>
                    </mxGeometry>
                </mxCell>
                <mxCell id="E0j1BQQdfri8mgkAOBtm-57" value="" style="shape=partialRectangle;collapsible=0;dropTarget=0;pointerEvents=0;fillColor=none;top=0;left=0;bottom=0;right=0;points=[[0,0.5],[1,0.5]];portConstraint=eastwest;" parent="E0j1BQQdfri8mgkAOBtm-50" vertex="1">
                    <mxGeometry y="90" width="180" height="30" as="geometry"/>
                </mxCell>
                <mxCell id="E0j1BQQdfri8mgkAOBtm-58" value="" style="shape=partialRectangle;connectable=0;fillColor=none;top=0;left=0;bottom=0;right=0;editable=1;overflow=hidden;" parent="E0j1BQQdfri8mgkAOBtm-57" vertex="1">
                    <mxGeometry width="30" height="30" as="geometry">
                        <mxRectangle width="30" height="30" as="alternateBounds"/>
                    </mxGeometry>
                </mxCell>
                <mxCell id="E0j1BQQdfri8mgkAOBtm-59" value="Year" style="shape=partialRectangle;connectable=0;fillColor=none;top=0;left=0;bottom=0;right=0;align=left;spacingLeft=6;overflow=hidden;" parent="E0j1BQQdfri8mgkAOBtm-57" vertex="1">
                    <mxGeometry x="30" width="150" height="30" as="geometry">
                        <mxRectangle width="150" height="30" as="alternateBounds"/>
                    </mxGeometry>
                </mxCell>
                <mxCell id="E0j1BQQdfri8mgkAOBtm-60" value="" style="shape=partialRectangle;collapsible=0;dropTarget=0;pointerEvents=0;fillColor=none;top=0;left=0;bottom=0;right=0;points=[[0,0.5],[1,0.5]];portConstraint=eastwest;" parent="E0j1BQQdfri8mgkAOBtm-50" vertex="1">
                    <mxGeometry y="120" width="180" height="30" as="geometry"/>
                </mxCell>
                <mxCell id="E0j1BQQdfri8mgkAOBtm-61" value="" style="shape=partialRectangle;connectable=0;fillColor=none;top=0;left=0;bottom=0;right=0;editable=1;overflow=hidden;" parent="E0j1BQQdfri8mgkAOBtm-60" vertex="1">
                    <mxGeometry width="30" height="30" as="geometry">
                        <mxRectangle width="30" height="30" as="alternateBounds"/>
                    </mxGeometry>
                </mxCell>
                <mxCell id="E0j1BQQdfri8mgkAOBtm-62" value="Semester" style="shape=partialRectangle;connectable=0;fillColor=none;top=0;left=0;bottom=0;right=0;align=left;spacingLeft=6;overflow=hidden;" parent="E0j1BQQdfri8mgkAOBtm-60" vertex="1">
                    <mxGeometry x="30" width="150" height="30" as="geometry">
                        <mxRectangle width="150" height="30" as="alternateBounds"/>
                    </mxGeometry>
                </mxCell>
                <mxCell id="qu-U0W3mSs8zjcbtvWfx-31" value="" style="shape=partialRectangle;collapsible=0;dropTarget=0;pointerEvents=0;fillColor=none;top=0;left=0;bottom=0;right=0;points=[[0,0.5],[1,0.5]];portConstraint=eastwest;" parent="E0j1BQQdfri8mgkAOBtm-50" vertex="1">
                    <mxGeometry y="150" width="180" height="30" as="geometry"/>
                </mxCell>
                <mxCell id="qu-U0W3mSs8zjcbtvWfx-32" value="" style="shape=partialRectangle;connectable=0;fillColor=none;top=0;left=0;bottom=0;right=0;editable=1;overflow=hidden;" parent="qu-U0W3mSs8zjcbtvWfx-31" vertex="1">
                    <mxGeometry width="30" height="30" as="geometry">
                        <mxRectangle width="30" height="30" as="alternateBounds"/>
                    </mxGeometry>
                </mxCell>
                <mxCell id="qu-U0W3mSs8zjcbtvWfx-33" value="Compulsory" style="shape=partialRectangle;connectable=0;fillColor=none;top=0;left=0;bottom=0;right=0;align=left;spacingLeft=6;overflow=hidden;" parent="qu-U0W3mSs8zjcbtvWfx-31" vertex="1">
                    <mxGeometry x="30" width="150" height="30" as="geometry">
                        <mxRectangle width="150" height="30" as="alternateBounds"/>
                    </mxGeometry>
                </mxCell>
                <mxCell id="E0j1BQQdfri8mgkAOBtm-120" value="Category" style="shape=table;startSize=30;container=1;collapsible=1;childLayout=tableLayout;fixedRows=1;rowLines=0;fontStyle=1;align=center;resizeLast=1;hachureGap=4;pointerEvents=0;" parent="E0j1BQQdfri8mgkAOBtm-1" vertex="1">
                    <mxGeometry x="450" y="670" width="180" height="90" as="geometry"/>
                </mxCell>
                <mxCell id="E0j1BQQdfri8mgkAOBtm-121" value="" style="shape=partialRectangle;collapsible=0;dropTarget=0;pointerEvents=0;fillColor=none;top=0;left=0;bottom=1;right=0;points=[[0,0.5],[1,0.5]];portConstraint=eastwest;" parent="E0j1BQQdfri8mgkAOBtm-120" vertex="1">
                    <mxGeometry y="30" width="180" height="30" as="geometry"/>
                </mxCell>
                <mxCell id="E0j1BQQdfri8mgkAOBtm-122" value="PK" style="shape=partialRectangle;connectable=0;fillColor=none;top=0;left=0;bottom=0;right=0;fontStyle=1;overflow=hidden;" parent="E0j1BQQdfri8mgkAOBtm-121" vertex="1">
                    <mxGeometry width="30" height="30" as="geometry">
                        <mxRectangle width="30" height="30" as="alternateBounds"/>
                    </mxGeometry>
                </mxCell>
                <mxCell id="E0j1BQQdfri8mgkAOBtm-123" value="ID" style="shape=partialRectangle;connectable=0;fillColor=none;top=0;left=0;bottom=0;right=0;align=left;spacingLeft=6;fontStyle=5;overflow=hidden;" parent="E0j1BQQdfri8mgkAOBtm-121" vertex="1">
                    <mxGeometry x="30" width="150" height="30" as="geometry">
                        <mxRectangle width="150" height="30" as="alternateBounds"/>
                    </mxGeometry>
                </mxCell>
                <mxCell id="E0j1BQQdfri8mgkAOBtm-124" value="" style="shape=partialRectangle;collapsible=0;dropTarget=0;pointerEvents=0;fillColor=none;top=0;left=0;bottom=0;right=0;points=[[0,0.5],[1,0.5]];portConstraint=eastwest;" parent="E0j1BQQdfri8mgkAOBtm-120" vertex="1">
                    <mxGeometry y="60" width="180" height="30" as="geometry"/>
                </mxCell>
                <mxCell id="E0j1BQQdfri8mgkAOBtm-125" value="" style="shape=partialRectangle;connectable=0;fillColor=none;top=0;left=0;bottom=0;right=0;editable=1;overflow=hidden;" parent="E0j1BQQdfri8mgkAOBtm-124" vertex="1">
                    <mxGeometry width="30" height="30" as="geometry">
                        <mxRectangle width="30" height="30" as="alternateBounds"/>
                    </mxGeometry>
                </mxCell>
                <mxCell id="E0j1BQQdfri8mgkAOBtm-126" value="Name" style="shape=partialRectangle;connectable=0;fillColor=none;top=0;left=0;bottom=0;right=0;align=left;spacingLeft=6;overflow=hidden;" parent="E0j1BQQdfri8mgkAOBtm-124" vertex="1">
                    <mxGeometry x="30" width="150" height="30" as="geometry">
                        <mxRectangle width="150" height="30" as="alternateBounds"/>
                    </mxGeometry>
                </mxCell>
                <mxCell id="qu-U0W3mSs8zjcbtvWfx-2" value="" style="edgeStyle=entityRelationEdgeStyle;fontSize=12;html=1;endArrow=ERmany;exitX=1;exitY=0.5;exitDx=0;exitDy=0;" parent="E0j1BQQdfri8mgkAOBtm-1" source="E0j1BQQdfri8mgkAOBtm-40" target="E0j1BQQdfri8mgkAOBtm-4" edge="1">
                    <mxGeometry width="100" height="100" relative="1" as="geometry">
                        <mxPoint x="420" y="700" as="sourcePoint"/>
                        <mxPoint x="520" y="600" as="targetPoint"/>
                    </mxGeometry>
                </mxCell>
                <mxCell id="qu-U0W3mSs8zjcbtvWfx-4" value="" style="edgeStyle=entityRelationEdgeStyle;fontSize=12;html=1;endArrow=ERmany;" parent="E0j1BQQdfri8mgkAOBtm-1" source="E0j1BQQdfri8mgkAOBtm-57" target="E0j1BQQdfri8mgkAOBtm-7" edge="1">
                    <mxGeometry width="100" height="100" relative="1" as="geometry">
                        <mxPoint x="330" y="448" as="sourcePoint"/>
                        <mxPoint x="330" y="845" as="targetPoint"/>
                    </mxGeometry>
                </mxCell>
                <mxCell id="qu-U0W3mSs8zjcbtvWfx-5" value="" style="edgeStyle=entityRelationEdgeStyle;fontSize=12;html=1;endArrow=ERmany;" parent="E0j1BQQdfri8mgkAOBtm-1" source="qu-U0W3mSs8zjcbtvWfx-25" target="qu-U0W3mSs8zjcbtvWfx-52" edge="1">
                    <mxGeometry width="100" height="100" relative="1" as="geometry">
                        <mxPoint x="340" y="458" as="sourcePoint"/>
                        <mxPoint x="710" y="605" as="targetPoint"/>
                    </mxGeometry>
                </mxCell>
                <mxCell id="qu-U0W3mSs8zjcbtvWfx-7" value="" style="edgeStyle=entityRelationEdgeStyle;fontSize=12;html=1;endArrow=ERmany;" parent="E0j1BQQdfri8mgkAOBtm-1" source="qu-U0W3mSs8zjcbtvWfx-58" target="E0j1BQQdfri8mgkAOBtm-47" edge="1">
                    <mxGeometry width="100" height="100" relative="1" as="geometry">
                        <mxPoint x="360" y="478" as="sourcePoint"/>
                        <mxPoint x="360" y="875" as="targetPoint"/>
                    </mxGeometry>
                </mxCell>
                <mxCell id="qu-U0W3mSs8zjcbtvWfx-8" value="" style="edgeStyle=entityRelationEdgeStyle;fontSize=12;html=1;endArrow=ERmany;" parent="E0j1BQQdfri8mgkAOBtm-1" source="E0j1BQQdfri8mgkAOBtm-31" target="E0j1BQQdfri8mgkAOBtm-44" edge="1">
                    <mxGeometry width="100" height="100" relative="1" as="geometry">
                        <mxPoint x="370" y="488" as="sourcePoint"/>
                        <mxPoint x="500" y="460" as="targetPoint"/>
                    </mxGeometry>
                </mxCell>
                <mxCell id="qu-U0W3mSs8zjcbtvWfx-9" value="" style="edgeStyle=entityRelationEdgeStyle;fontSize=12;html=1;endArrow=ERmany;" parent="E0j1BQQdfri8mgkAOBtm-1" source="E0j1BQQdfri8mgkAOBtm-124" target="E0j1BQQdfri8mgkAOBtm-60" edge="1">
                    <mxGeometry width="100" height="100" relative="1" as="geometry">
                        <mxPoint x="380" y="498" as="sourcePoint"/>
                        <mxPoint x="380" y="895" as="targetPoint"/>
                    </mxGeometry>
                </mxCell>
                <mxCell id="qu-U0W3mSs8zjcbtvWfx-10" value="" style="group" parent="E0j1BQQdfri8mgkAOBtm-1" vertex="1" connectable="0">
                    <mxGeometry x="-370" y="320" width="460" height="350" as="geometry"/>
                </mxCell>
                <mxCell id="E0j1BQQdfri8mgkAOBtm-64" value="" style="group" parent="qu-U0W3mSs8zjcbtvWfx-10" vertex="1" connectable="0">
                    <mxGeometry x="290" y="40" width="100" height="90" as="geometry"/>
                </mxCell>
                <mxCell id="E0j1BQQdfri8mgkAOBtm-65" value="Auth group" style="shape=table;startSize=30;container=1;collapsible=1;childLayout=tableLayout;fixedRows=1;rowLines=0;fontStyle=1;align=center;resizeLast=1;" parent="E0j1BQQdfri8mgkAOBtm-64" vertex="1">
                    <mxGeometry width="100" height="90" as="geometry"/>
                </mxCell>
                <mxCell id="E0j1BQQdfri8mgkAOBtm-66" value="" style="shape=partialRectangle;collapsible=0;dropTarget=0;pointerEvents=0;fillColor=none;points=[[0,0.5],[1,0.5]];portConstraint=eastwest;top=0;left=0;right=0;bottom=1;" parent="E0j1BQQdfri8mgkAOBtm-65" vertex="1">
                    <mxGeometry y="30" width="100" height="30" as="geometry"/>
                </mxCell>
                <mxCell id="E0j1BQQdfri8mgkAOBtm-67" value="PK" style="shape=partialRectangle;overflow=hidden;connectable=0;fillColor=none;top=0;left=0;bottom=0;right=0;fontStyle=1;" parent="E0j1BQQdfri8mgkAOBtm-66" vertex="1">
                    <mxGeometry width="30" height="30" as="geometry">
                        <mxRectangle width="30" height="30" as="alternateBounds"/>
                    </mxGeometry>
                </mxCell>
                <mxCell id="E0j1BQQdfri8mgkAOBtm-68" value="ID" style="shape=partialRectangle;overflow=hidden;connectable=0;fillColor=none;top=0;left=0;bottom=0;right=0;align=left;spacingLeft=6;fontStyle=5;" parent="E0j1BQQdfri8mgkAOBtm-66" vertex="1">
                    <mxGeometry x="30" width="70" height="30" as="geometry">
                        <mxRectangle width="70" height="30" as="alternateBounds"/>
                    </mxGeometry>
                </mxCell>
                <mxCell id="E0j1BQQdfri8mgkAOBtm-69" value="" style="shape=partialRectangle;collapsible=0;dropTarget=0;pointerEvents=0;fillColor=none;points=[[0,0.5],[1,0.5]];portConstraint=eastwest;top=0;left=0;right=0;bottom=0;" parent="E0j1BQQdfri8mgkAOBtm-65" vertex="1">
                    <mxGeometry y="60" width="100" height="30" as="geometry"/>
                </mxCell>
                <mxCell id="E0j1BQQdfri8mgkAOBtm-70" value="" style="shape=partialRectangle;overflow=hidden;connectable=0;fillColor=none;top=0;left=0;bottom=0;right=0;" parent="E0j1BQQdfri8mgkAOBtm-69" vertex="1">
                    <mxGeometry width="30" height="30" as="geometry">
                        <mxRectangle width="30" height="30" as="alternateBounds"/>
                    </mxGeometry>
                </mxCell>
                <mxCell id="E0j1BQQdfri8mgkAOBtm-71" value="Name" style="shape=partialRectangle;overflow=hidden;connectable=0;fillColor=none;top=0;left=0;bottom=0;right=0;align=left;spacingLeft=6;" parent="E0j1BQQdfri8mgkAOBtm-69" vertex="1">
                    <mxGeometry x="30" width="70" height="30" as="geometry">
                        <mxRectangle width="70" height="30" as="alternateBounds"/>
                    </mxGeometry>
                </mxCell>
                <mxCell id="E0j1BQQdfri8mgkAOBtm-72" value="Auth permissions" style="shape=table;startSize=30;container=1;collapsible=1;childLayout=tableLayout;fixedRows=1;rowLines=0;fontStyle=1;align=center;resizeLast=1;" parent="qu-U0W3mSs8zjcbtvWfx-10" vertex="1">
                    <mxGeometry x="265" y="210" width="150" height="120" as="geometry"/>
                </mxCell>
                <mxCell id="E0j1BQQdfri8mgkAOBtm-73" value="" style="shape=partialRectangle;collapsible=0;dropTarget=0;pointerEvents=0;fillColor=none;top=0;left=0;bottom=1;right=0;points=[[0,0.5],[1,0.5]];portConstraint=eastwest;" parent="E0j1BQQdfri8mgkAOBtm-72" vertex="1">
                    <mxGeometry y="30" width="150" height="30" as="geometry"/>
                </mxCell>
                <mxCell id="E0j1BQQdfri8mgkAOBtm-74" value="PK" style="shape=partialRectangle;connectable=0;fillColor=none;top=0;left=0;bottom=0;right=0;fontStyle=1;overflow=hidden;" parent="E0j1BQQdfri8mgkAOBtm-73" vertex="1">
                    <mxGeometry width="30" height="30" as="geometry">
                        <mxRectangle width="30" height="30" as="alternateBounds"/>
                    </mxGeometry>
                </mxCell>
                <mxCell id="E0j1BQQdfri8mgkAOBtm-75" value="ID" style="shape=partialRectangle;connectable=0;fillColor=none;top=0;left=0;bottom=0;right=0;align=left;spacingLeft=6;fontStyle=5;overflow=hidden;" parent="E0j1BQQdfri8mgkAOBtm-73" vertex="1">
                    <mxGeometry x="30" width="120" height="30" as="geometry">
                        <mxRectangle width="120" height="30" as="alternateBounds"/>
                    </mxGeometry>
                </mxCell>
                <mxCell id="E0j1BQQdfri8mgkAOBtm-76" value="" style="shape=partialRectangle;collapsible=0;dropTarget=0;pointerEvents=0;fillColor=none;top=0;left=0;bottom=0;right=0;points=[[0,0.5],[1,0.5]];portConstraint=eastwest;" parent="E0j1BQQdfri8mgkAOBtm-72" vertex="1">
                    <mxGeometry y="60" width="150" height="30" as="geometry"/>
                </mxCell>
                <mxCell id="E0j1BQQdfri8mgkAOBtm-77" value="" style="shape=partialRectangle;connectable=0;fillColor=none;top=0;left=0;bottom=0;right=0;editable=1;overflow=hidden;" parent="E0j1BQQdfri8mgkAOBtm-76" vertex="1">
                    <mxGeometry width="30" height="30" as="geometry">
                        <mxRectangle width="30" height="30" as="alternateBounds"/>
                    </mxGeometry>
                </mxCell>
                <mxCell id="E0j1BQQdfri8mgkAOBtm-78" value="Codename" style="shape=partialRectangle;connectable=0;fillColor=none;top=0;left=0;bottom=0;right=0;align=left;spacingLeft=6;overflow=hidden;" parent="E0j1BQQdfri8mgkAOBtm-76" vertex="1">
                    <mxGeometry x="30" width="120" height="30" as="geometry">
                        <mxRectangle width="120" height="30" as="alternateBounds"/>
                    </mxGeometry>
                </mxCell>
                <mxCell id="E0j1BQQdfri8mgkAOBtm-79" value="" style="shape=partialRectangle;collapsible=0;dropTarget=0;pointerEvents=0;fillColor=none;top=0;left=0;bottom=0;right=0;points=[[0,0.5],[1,0.5]];portConstraint=eastwest;" parent="E0j1BQQdfri8mgkAOBtm-72" vertex="1">
                    <mxGeometry y="90" width="150" height="30" as="geometry"/>
                </mxCell>
                <mxCell id="E0j1BQQdfri8mgkAOBtm-80" value="" style="shape=partialRectangle;connectable=0;fillColor=none;top=0;left=0;bottom=0;right=0;editable=1;overflow=hidden;" parent="E0j1BQQdfri8mgkAOBtm-79" vertex="1">
                    <mxGeometry width="30" height="30" as="geometry">
                        <mxRectangle width="30" height="30" as="alternateBounds"/>
                    </mxGeometry>
                </mxCell>
                <mxCell id="E0j1BQQdfri8mgkAOBtm-81" value="Name" style="shape=partialRectangle;connectable=0;fillColor=none;top=0;left=0;bottom=0;right=0;align=left;spacingLeft=6;overflow=hidden;" parent="E0j1BQQdfri8mgkAOBtm-79" vertex="1">
                    <mxGeometry x="30" width="120" height="30" as="geometry">
                        <mxRectangle width="120" height="30" as="alternateBounds"/>
                    </mxGeometry>
                </mxCell>
                <mxCell id="E0j1BQQdfri8mgkAOBtm-82" value="Django content type" style="shape=table;startSize=30;container=1;collapsible=1;childLayout=tableLayout;fixedRows=1;rowLines=0;fontStyle=1;align=center;resizeLast=1;" parent="qu-U0W3mSs8zjcbtvWfx-10" vertex="1">
                    <mxGeometry x="10" y="210" width="180" height="120" as="geometry"/>
                </mxCell>
                <mxCell id="E0j1BQQdfri8mgkAOBtm-83" value="" style="shape=partialRectangle;collapsible=0;dropTarget=0;pointerEvents=0;fillColor=none;top=0;left=0;bottom=1;right=0;points=[[0,0.5],[1,0.5]];portConstraint=eastwest;" parent="E0j1BQQdfri8mgkAOBtm-82" vertex="1">
                    <mxGeometry y="30" width="180" height="30" as="geometry"/>
                </mxCell>
                <mxCell id="E0j1BQQdfri8mgkAOBtm-84" value="PK" style="shape=partialRectangle;connectable=0;fillColor=none;top=0;left=0;bottom=0;right=0;fontStyle=1;overflow=hidden;" parent="E0j1BQQdfri8mgkAOBtm-83" vertex="1">
                    <mxGeometry width="30" height="30" as="geometry">
                        <mxRectangle width="30" height="30" as="alternateBounds"/>
                    </mxGeometry>
                </mxCell>
                <mxCell id="E0j1BQQdfri8mgkAOBtm-85" value="ID" style="shape=partialRectangle;connectable=0;fillColor=none;top=0;left=0;bottom=0;right=0;align=left;spacingLeft=6;fontStyle=5;overflow=hidden;" parent="E0j1BQQdfri8mgkAOBtm-83" vertex="1">
                    <mxGeometry x="30" width="150" height="30" as="geometry">
                        <mxRectangle width="150" height="30" as="alternateBounds"/>
                    </mxGeometry>
                </mxCell>
                <mxCell id="E0j1BQQdfri8mgkAOBtm-86" value="" style="shape=partialRectangle;collapsible=0;dropTarget=0;pointerEvents=0;fillColor=none;top=0;left=0;bottom=0;right=0;points=[[0,0.5],[1,0.5]];portConstraint=eastwest;" parent="E0j1BQQdfri8mgkAOBtm-82" vertex="1">
                    <mxGeometry y="60" width="180" height="30" as="geometry"/>
                </mxCell>
                <mxCell id="E0j1BQQdfri8mgkAOBtm-87" value="" style="shape=partialRectangle;connectable=0;fillColor=none;top=0;left=0;bottom=0;right=0;editable=1;overflow=hidden;" parent="E0j1BQQdfri8mgkAOBtm-86" vertex="1">
                    <mxGeometry width="30" height="30" as="geometry">
                        <mxRectangle width="30" height="30" as="alternateBounds"/>
                    </mxGeometry>
                </mxCell>
                <mxCell id="E0j1BQQdfri8mgkAOBtm-88" value="App label" style="shape=partialRectangle;connectable=0;fillColor=none;top=0;left=0;bottom=0;right=0;align=left;spacingLeft=6;overflow=hidden;" parent="E0j1BQQdfri8mgkAOBtm-86" vertex="1">
                    <mxGeometry x="30" width="150" height="30" as="geometry">
                        <mxRectangle width="150" height="30" as="alternateBounds"/>
                    </mxGeometry>
                </mxCell>
                <mxCell id="E0j1BQQdfri8mgkAOBtm-89" value="" style="shape=partialRectangle;collapsible=0;dropTarget=0;pointerEvents=0;fillColor=none;top=0;left=0;bottom=0;right=0;points=[[0,0.5],[1,0.5]];portConstraint=eastwest;" parent="E0j1BQQdfri8mgkAOBtm-82" vertex="1">
                    <mxGeometry y="90" width="180" height="30" as="geometry"/>
                </mxCell>
                <mxCell id="E0j1BQQdfri8mgkAOBtm-90" value="" style="shape=partialRectangle;connectable=0;fillColor=none;top=0;left=0;bottom=0;right=0;editable=1;overflow=hidden;" parent="E0j1BQQdfri8mgkAOBtm-89" vertex="1">
                    <mxGeometry width="30" height="30" as="geometry">
                        <mxRectangle width="30" height="30" as="alternateBounds"/>
                    </mxGeometry>
                </mxCell>
                <mxCell id="E0j1BQQdfri8mgkAOBtm-91" value="Model" style="shape=partialRectangle;connectable=0;fillColor=none;top=0;left=0;bottom=0;right=0;align=left;spacingLeft=6;overflow=hidden;" parent="E0j1BQQdfri8mgkAOBtm-89" vertex="1">
                    <mxGeometry x="30" width="150" height="30" as="geometry">
                        <mxRectangle width="150" height="30" as="alternateBounds"/>
                    </mxGeometry>
                </mxCell>
                <mxCell id="E0j1BQQdfri8mgkAOBtm-92" value="Django session" style="shape=table;startSize=30;container=1;collapsible=1;childLayout=tableLayout;fixedRows=1;rowLines=0;fontStyle=1;align=center;resizeLast=1;" parent="qu-U0W3mSs8zjcbtvWfx-10" vertex="1">
                    <mxGeometry x="10" y="40" width="180" height="120" as="geometry"/>
                </mxCell>
                <mxCell id="E0j1BQQdfri8mgkAOBtm-93" value="" style="shape=partialRectangle;collapsible=0;dropTarget=0;pointerEvents=0;fillColor=none;top=0;left=0;bottom=1;right=0;points=[[0,0.5],[1,0.5]];portConstraint=eastwest;" parent="E0j1BQQdfri8mgkAOBtm-92" vertex="1">
                    <mxGeometry y="30" width="180" height="30" as="geometry"/>
                </mxCell>
                <mxCell id="E0j1BQQdfri8mgkAOBtm-94" value="PK" style="shape=partialRectangle;connectable=0;fillColor=none;top=0;left=0;bottom=0;right=0;fontStyle=1;overflow=hidden;" parent="E0j1BQQdfri8mgkAOBtm-93" vertex="1">
                    <mxGeometry width="30" height="30" as="geometry">
                        <mxRectangle width="30" height="30" as="alternateBounds"/>
                    </mxGeometry>
                </mxCell>
                <mxCell id="E0j1BQQdfri8mgkAOBtm-95" value="Session key" style="shape=partialRectangle;connectable=0;fillColor=none;top=0;left=0;bottom=0;right=0;align=left;spacingLeft=6;fontStyle=5;overflow=hidden;" parent="E0j1BQQdfri8mgkAOBtm-93" vertex="1">
                    <mxGeometry x="30" width="150" height="30" as="geometry">
                        <mxRectangle width="150" height="30" as="alternateBounds"/>
                    </mxGeometry>
                </mxCell>
                <mxCell id="E0j1BQQdfri8mgkAOBtm-96" value="" style="shape=partialRectangle;collapsible=0;dropTarget=0;pointerEvents=0;fillColor=none;top=0;left=0;bottom=0;right=0;points=[[0,0.5],[1,0.5]];portConstraint=eastwest;" parent="E0j1BQQdfri8mgkAOBtm-92" vertex="1">
                    <mxGeometry y="60" width="180" height="30" as="geometry"/>
                </mxCell>
                <mxCell id="E0j1BQQdfri8mgkAOBtm-97" value="" style="shape=partialRectangle;connectable=0;fillColor=none;top=0;left=0;bottom=0;right=0;editable=1;overflow=hidden;" parent="E0j1BQQdfri8mgkAOBtm-96" vertex="1">
                    <mxGeometry width="30" height="30" as="geometry">
                        <mxRectangle width="30" height="30" as="alternateBounds"/>
                    </mxGeometry>
                </mxCell>
                <mxCell id="E0j1BQQdfri8mgkAOBtm-98" value="Session data" style="shape=partialRectangle;connectable=0;fillColor=none;top=0;left=0;bottom=0;right=0;align=left;spacingLeft=6;overflow=hidden;" parent="E0j1BQQdfri8mgkAOBtm-96" vertex="1">
                    <mxGeometry x="30" width="150" height="30" as="geometry">
                        <mxRectangle width="150" height="30" as="alternateBounds"/>
                    </mxGeometry>
                </mxCell>
                <mxCell id="E0j1BQQdfri8mgkAOBtm-99" value="" style="shape=partialRectangle;collapsible=0;dropTarget=0;pointerEvents=0;fillColor=none;top=0;left=0;bottom=0;right=0;points=[[0,0.5],[1,0.5]];portConstraint=eastwest;" parent="E0j1BQQdfri8mgkAOBtm-92" vertex="1">
                    <mxGeometry y="90" width="180" height="30" as="geometry"/>
                </mxCell>
                <mxCell id="E0j1BQQdfri8mgkAOBtm-100" value="" style="shape=partialRectangle;connectable=0;fillColor=none;top=0;left=0;bottom=0;right=0;editable=1;overflow=hidden;" parent="E0j1BQQdfri8mgkAOBtm-99" vertex="1">
                    <mxGeometry width="30" height="30" as="geometry">
                        <mxRectangle width="30" height="30" as="alternateBounds"/>
                    </mxGeometry>
                </mxCell>
                <mxCell id="E0j1BQQdfri8mgkAOBtm-101" value="Expire date" style="shape=partialRectangle;connectable=0;fillColor=none;top=0;left=0;bottom=0;right=0;align=left;spacingLeft=6;overflow=hidden;" parent="E0j1BQQdfri8mgkAOBtm-99" vertex="1">
                    <mxGeometry x="30" width="150" height="30" as="geometry">
                        <mxRectangle width="150" height="30" as="alternateBounds"/>
                    </mxGeometry>
                </mxCell>
                <mxCell id="E0j1BQQdfri8mgkAOBtm-102" value="" style="edgeStyle=entityRelationEdgeStyle;fontSize=12;html=1;endArrow=ERmany;startArrow=ERmany;" parent="qu-U0W3mSs8zjcbtvWfx-10" source="E0j1BQQdfri8mgkAOBtm-76" target="E0j1BQQdfri8mgkAOBtm-69" edge="1">
                    <mxGeometry width="100" height="100" as="geometry">
                        <mxPoint x="440" y="160" as="sourcePoint"/>
                        <mxPoint x="540" y="60" as="targetPoint"/>
                    </mxGeometry>
                </mxCell>
                <mxCell id="E0j1BQQdfri8mgkAOBtm-104" value="" style="group" parent="qu-U0W3mSs8zjcbtvWfx-10" vertex="1" connectable="0">
                    <mxGeometry width="460" height="350" as="geometry"/>
                </mxCell>
                <mxCell id="E0j1BQQdfri8mgkAOBtm-105" value="" style="endArrow=none;dashed=1;html=1;" parent="E0j1BQQdfri8mgkAOBtm-104" edge="1">
                    <mxGeometry width="50" height="50" relative="1" as="geometry">
                        <mxPoint y="350" as="sourcePoint"/>
                        <mxPoint x="460" y="350" as="targetPoint"/>
                    </mxGeometry>
                </mxCell>
                <mxCell id="E0j1BQQdfri8mgkAOBtm-106" value="" style="endArrow=none;dashed=1;html=1;" parent="E0j1BQQdfri8mgkAOBtm-104" edge="1">
                    <mxGeometry width="50" height="50" relative="1" as="geometry">
                        <mxPoint x="460" as="sourcePoint"/>
                        <mxPoint x="460" y="350" as="targetPoint"/>
                    </mxGeometry>
                </mxCell>
                <mxCell id="E0j1BQQdfri8mgkAOBtm-107" value="" style="endArrow=none;dashed=1;html=1;" parent="E0j1BQQdfri8mgkAOBtm-104" edge="1">
                    <mxGeometry width="50" height="50" relative="1" as="geometry">
                        <mxPoint as="sourcePoint"/>
                        <mxPoint x="460" as="targetPoint"/>
                    </mxGeometry>
                </mxCell>
                <mxCell id="E0j1BQQdfri8mgkAOBtm-108" value="" style="endArrow=none;dashed=1;html=1;" parent="E0j1BQQdfri8mgkAOBtm-104" edge="1">
                    <mxGeometry width="50" height="50" relative="1" as="geometry">
                        <mxPoint y="350" as="sourcePoint"/>
                        <mxPoint as="targetPoint"/>
                    </mxGeometry>
                </mxCell>
                <mxCell id="E0j1BQQdfri8mgkAOBtm-109" value="&lt;b&gt;Django default DB tables&lt;/b&gt;" style="text;html=1;strokeColor=none;fillColor=none;align=center;verticalAlign=middle;whiteSpace=wrap;rounded=0;" parent="E0j1BQQdfri8mgkAOBtm-104" vertex="1">
                    <mxGeometry x="145" y="10" width="170" height="20" as="geometry"/>
                </mxCell>
                <mxCell id="qu-U0W3mSs8zjcbtvWfx-0" value="" style="edgeStyle=entityRelationEdgeStyle;fontSize=12;html=1;endArrow=ERmany;" parent="qu-U0W3mSs8zjcbtvWfx-10" source="E0j1BQQdfri8mgkAOBtm-86" target="E0j1BQQdfri8mgkAOBtm-76" edge="1">
                    <mxGeometry width="100" height="100" relative="1" as="geometry">
                        <mxPoint x="280" y="360" as="sourcePoint"/>
                        <mxPoint x="380" y="260" as="targetPoint"/>
                    </mxGeometry>
                </mxCell>
                <mxCell id="qu-U0W3mSs8zjcbtvWfx-11" value="" style="edgeStyle=entityRelationEdgeStyle;fontSize=12;html=1;endArrow=ERmany;" parent="E0j1BQQdfri8mgkAOBtm-1" source="E0j1BQQdfri8mgkAOBtm-34" target="E0j1BQQdfri8mgkAOBtm-51" edge="1">
                    <mxGeometry width="100" height="100" relative="1" as="geometry">
                        <mxPoint x="390" y="508" as="sourcePoint"/>
                        <mxPoint x="390" y="905" as="targetPoint"/>
                    </mxGeometry>
                </mxCell>
                <mxCell id="qu-U0W3mSs8zjcbtvWfx-13" value="Create" style="edgeLabel;html=1;align=center;verticalAlign=middle;resizable=0;points=[];" parent="qu-U0W3mSs8zjcbtvWfx-11" vertex="1" connectable="0">
                    <mxGeometry x="0.0557" y="1" relative="1" as="geometry">
                        <mxPoint as="offset"/>
                    </mxGeometry>
                </mxCell>
                <mxCell id="qu-U0W3mSs8zjcbtvWfx-14" value="" style="edgeStyle=entityRelationEdgeStyle;fontSize=12;html=1;endArrow=ERmany;startArrow=ERmany;" parent="E0j1BQQdfri8mgkAOBtm-1" source="E0j1BQQdfri8mgkAOBtm-37" target="E0j1BQQdfri8mgkAOBtm-54" edge="1">
                    <mxGeometry width="100" height="100" relative="1" as="geometry">
                        <mxPoint x="450" y="670" as="sourcePoint"/>
                        <mxPoint x="550" y="570" as="targetPoint"/>
                    </mxGeometry>
                </mxCell>
                <mxCell id="qu-U0W3mSs8zjcbtvWfx-15" value="Register" style="edgeLabel;html=1;align=center;verticalAlign=middle;resizable=0;points=[];" parent="qu-U0W3mSs8zjcbtvWfx-14" vertex="1" connectable="0">
                    <mxGeometry x="-0.0845" relative="1" as="geometry">
                        <mxPoint as="offset"/>
                    </mxGeometry>
                </mxCell>
                <mxCell id="qu-U0W3mSs8zjcbtvWfx-35" value="Reaction" style="shape=table;startSize=30;container=1;collapsible=1;childLayout=tableLayout;fixedRows=1;rowLines=0;fontStyle=1;align=center;resizeLast=1;" parent="E0j1BQQdfri8mgkAOBtm-1" vertex="1" collapsed="1">
                    <mxGeometry x="840" y="830" width="80" height="30" as="geometry">
                        <mxRectangle x="930" y="790" width="180" height="30" as="alternateBounds"/>
                    </mxGeometry>
                </mxCell>
                <mxCell id="qu-U0W3mSs8zjcbtvWfx-39" value="" style="shape=partialRectangle;collapsible=0;dropTarget=0;pointerEvents=0;fillColor=none;top=0;left=0;bottom=0;right=0;points=[[0,0.5],[1,0.5]];portConstraint=eastwest;" parent="qu-U0W3mSs8zjcbtvWfx-35" vertex="1">
                    <mxGeometry y="30" width="180" height="30" as="geometry"/>
                </mxCell>
                <mxCell id="qu-U0W3mSs8zjcbtvWfx-40" value="" style="shape=partialRectangle;connectable=0;fillColor=none;top=0;left=0;bottom=0;right=0;editable=1;overflow=hidden;" parent="qu-U0W3mSs8zjcbtvWfx-39" vertex="1">
                    <mxGeometry width="30" height="30" as="geometry">
                        <mxRectangle width="30" height="30" as="alternateBounds"/>
                    </mxGeometry>
                </mxCell>
                <mxCell id="qu-U0W3mSs8zjcbtvWfx-41" value="" style="shape=partialRectangle;connectable=0;fillColor=none;top=0;left=0;bottom=0;right=0;align=left;spacingLeft=6;overflow=hidden;" parent="qu-U0W3mSs8zjcbtvWfx-39" vertex="1">
                    <mxGeometry x="30" width="150" height="30" as="geometry">
                        <mxRectangle width="150" height="30" as="alternateBounds"/>
                    </mxGeometry>
                </mxCell>
                <mxCell id="qu-U0W3mSs8zjcbtvWfx-48" value="Answer" style="shape=table;startSize=30;container=1;collapsible=1;childLayout=tableLayout;fixedRows=1;rowLines=0;fontStyle=1;align=center;resizeLast=1;" parent="E0j1BQQdfri8mgkAOBtm-1" vertex="1">
                    <mxGeometry x="570" y="800" width="180" height="130" as="geometry"/>
                </mxCell>
                <mxCell id="qu-U0W3mSs8zjcbtvWfx-55" value="" style="shape=partialRectangle;collapsible=0;dropTarget=0;pointerEvents=0;fillColor=none;top=0;left=0;bottom=0;right=0;points=[[0,0.5],[1,0.5]];portConstraint=eastwest;" parent="qu-U0W3mSs8zjcbtvWfx-48" vertex="1">
                    <mxGeometry y="30" width="180" height="30" as="geometry"/>
                </mxCell>
                <mxCell id="qu-U0W3mSs8zjcbtvWfx-56" value="" style="shape=partialRectangle;connectable=0;fillColor=none;top=0;left=0;bottom=0;right=0;editable=1;overflow=hidden;" parent="qu-U0W3mSs8zjcbtvWfx-55" vertex="1">
                    <mxGeometry width="30" height="30" as="geometry">
                        <mxRectangle width="30" height="30" as="alternateBounds"/>
                    </mxGeometry>
                </mxCell>
                <mxCell id="qu-U0W3mSs8zjcbtvWfx-57" value="Validity" style="shape=partialRectangle;connectable=0;fillColor=none;top=0;left=0;bottom=0;right=0;align=left;spacingLeft=6;overflow=hidden;" parent="qu-U0W3mSs8zjcbtvWfx-55" vertex="1">
                    <mxGeometry x="30" width="150" height="30" as="geometry">
                        <mxRectangle width="150" height="30" as="alternateBounds"/>
                    </mxGeometry>
                </mxCell>
                <mxCell id="qu-U0W3mSs8zjcbtvWfx-52" value="" style="shape=partialRectangle;collapsible=0;dropTarget=0;pointerEvents=0;fillColor=none;top=0;left=0;bottom=0;right=0;points=[[0,0.5],[1,0.5]];portConstraint=eastwest;" parent="qu-U0W3mSs8zjcbtvWfx-48" vertex="1">
                    <mxGeometry y="60" width="180" height="30" as="geometry"/>
                </mxCell>
                <mxCell id="qu-U0W3mSs8zjcbtvWfx-53" value="" style="shape=partialRectangle;connectable=0;fillColor=none;top=0;left=0;bottom=0;right=0;editable=1;overflow=hidden;" parent="qu-U0W3mSs8zjcbtvWfx-52" vertex="1">
                    <mxGeometry width="30" height="30" as="geometry">
                        <mxRectangle width="30" height="30" as="alternateBounds"/>
                    </mxGeometry>
                </mxCell>
                <mxCell id="qu-U0W3mSs8zjcbtvWfx-54" value="Points" style="shape=partialRectangle;connectable=0;fillColor=none;top=0;left=0;bottom=0;right=0;align=left;spacingLeft=6;overflow=hidden;" parent="qu-U0W3mSs8zjcbtvWfx-52" vertex="1">
                    <mxGeometry x="30" width="150" height="30" as="geometry">
                        <mxRectangle width="150" height="30" as="alternateBounds"/>
                    </mxGeometry>
                </mxCell>
                <mxCell id="qu-U0W3mSs8zjcbtvWfx-58" value="" style="shape=partialRectangle;collapsible=0;dropTarget=0;pointerEvents=0;fillColor=none;top=0;left=0;bottom=0;right=0;points=[[0,0.5],[1,0.5]];portConstraint=eastwest;" parent="qu-U0W3mSs8zjcbtvWfx-48" vertex="1">
                    <mxGeometry y="90" width="180" height="30" as="geometry"/>
                </mxCell>
                <mxCell id="qu-U0W3mSs8zjcbtvWfx-59" value="" style="shape=partialRectangle;connectable=0;fillColor=none;top=0;left=0;bottom=0;right=0;editable=1;overflow=hidden;" parent="qu-U0W3mSs8zjcbtvWfx-58" vertex="1">
                    <mxGeometry width="30" height="30" as="geometry">
                        <mxRectangle width="30" height="30" as="alternateBounds"/>
                    </mxGeometry>
                </mxCell>
                <mxCell id="qu-U0W3mSs8zjcbtvWfx-60" value="Teacher points" style="shape=partialRectangle;connectable=0;fillColor=none;top=0;left=0;bottom=0;right=0;align=left;spacingLeft=6;overflow=hidden;" parent="qu-U0W3mSs8zjcbtvWfx-58" vertex="1">
                    <mxGeometry x="30" width="150" height="30" as="geometry">
                        <mxRectangle width="150" height="30" as="alternateBounds"/>
                    </mxGeometry>
                </mxCell>
                <mxCell id="qu-U0W3mSs8zjcbtvWfx-62" value="" style="shape=flexArrow;endArrow=classic;html=1;entryX=0.502;entryY=1.031;entryDx=0;entryDy=0;entryPerimeter=0;fillColor=none;" parent="E0j1BQQdfri8mgkAOBtm-1" target="E0j1BQQdfri8mgkAOBtm-26" edge="1">
                    <mxGeometry width="50" height="50" relative="1" as="geometry">
                        <mxPoint x="800" y="770" as="sourcePoint"/>
                        <mxPoint x="799.6600000000001" y="700" as="targetPoint"/>
                    </mxGeometry>
                </mxCell>
                <mxCell id="qu-U0W3mSs8zjcbtvWfx-67" value="" style="edgeStyle=entityRelationEdgeStyle;fontSize=12;html=1;endArrow=ERmany;entryX=0;entryY=0.5;entryDx=0;entryDy=0;" parent="E0j1BQQdfri8mgkAOBtm-1" source="qu-U0W3mSs8zjcbtvWfx-55" target="qu-U0W3mSs8zjcbtvWfx-35" edge="1">
                    <mxGeometry width="100" height="100" relative="1" as="geometry">
                        <mxPoint x="580" y="760" as="sourcePoint"/>
                        <mxPoint x="680" y="660" as="targetPoint"/>
                    </mxGeometry>
                </mxCell>
                <mxCell id="qu-U0W3mSs8zjcbtvWfx-69" value="" style="rounded=0;whiteSpace=wrap;html=1;" parent="E0j1BQQdfri8mgkAOBtm-1" vertex="1">
                    <mxGeometry x="682" y="762" width="9.5" height="38" as="geometry"/>
                </mxCell>
                <mxCell id="qu-U0W3mSs8zjcbtvWfx-70" value="" style="rounded=0;whiteSpace=wrap;html=1;rotation=90;" parent="E0j1BQQdfri8mgkAOBtm-1" vertex="1">
                    <mxGeometry x="739" y="704" width="9.5" height="124" as="geometry"/>
                </mxCell>
                <mxCell id="qu-U0W3mSs8zjcbtvWfx-71" value="" style="rounded=0;whiteSpace=wrap;html=1;rotation=90;" parent="E0j1BQQdfri8mgkAOBtm-1" vertex="1">
                    <mxGeometry x="833" y="723" width="9.5" height="86" as="geometry"/>
                </mxCell>
                <mxCell id="qu-U0W3mSs8zjcbtvWfx-72" value="" style="rounded=0;whiteSpace=wrap;html=1;" parent="E0j1BQQdfri8mgkAOBtm-1" vertex="1">
                    <mxGeometry x="871" y="762" width="9.5" height="67" as="geometry"/>
                </mxCell>
                <mxCell id="qu-U0W3mSs8zjcbtvWfx-73" value="" style="rounded=0;whiteSpace=wrap;html=1;gradientColor=none;strokeWidth=0;strokeColor=#FFFFFF;" parent="E0j1BQQdfri8mgkAOBtm-1" vertex="1">
                    <mxGeometry x="796" y="755" width="8" height="10" as="geometry"/>
                </mxCell>
                <mxCell id="qu-U0W3mSs8zjcbtvWfx-75" value="" style="rounded=0;whiteSpace=wrap;html=1;gradientColor=none;strokeWidth=0;strokeColor=#FFFFFF;" parent="E0j1BQQdfri8mgkAOBtm-1" vertex="1">
                    <mxGeometry x="683" y="765" width="8" height="10" as="geometry"/>
                </mxCell>
                <mxCell id="qu-U0W3mSs8zjcbtvWfx-76" value="" style="rounded=0;whiteSpace=wrap;html=1;gradientColor=none;strokeWidth=0;rotation=90;strokeColor=#FFFFFF;" parent="E0j1BQQdfri8mgkAOBtm-1" vertex="1">
                    <mxGeometry x="791" y="761" width="8" height="10" as="geometry"/>
                </mxCell>
                <mxCell id="qu-U0W3mSs8zjcbtvWfx-77" value="" style="rounded=0;whiteSpace=wrap;html=1;gradientColor=none;strokeWidth=0;rotation=90;strokeColor=#FFFFFF;" parent="E0j1BQQdfri8mgkAOBtm-1" vertex="1">
                    <mxGeometry x="868" y="761" width="8" height="10" as="geometry"/>
                </mxCell>
                <mxCell id="qu-U0W3mSs8zjcbtvWfx-81" value="" style="curved=1;endArrow=none;html=1;fillColor=none;exitX=1;exitY=0.5;exitDx=0;exitDy=0;entryX=0.5;entryY=0;entryDx=0;entryDy=0;endFill=0;" parent="E0j1BQQdfri8mgkAOBtm-1" source="qu-U0W3mSs8zjcbtvWfx-16" target="E0j1BQQdfri8mgkAOBtm-16" edge="1">
                    <mxGeometry width="50" height="50" relative="1" as="geometry">
                        <mxPoint x="630" y="550" as="sourcePoint"/>
                        <mxPoint x="680" y="500" as="targetPoint"/>
                        <Array as="points">
                            <mxPoint x="680" y="440"/>
                            <mxPoint x="800" y="500"/>
                        </Array>
                    </mxGeometry>
                </mxCell>
                <mxCell id="qu-U0W3mSs8zjcbtvWfx-82" value="" style="endArrow=none;html=1;fillColor=none;entryX=0.479;entryY=-0.001;entryDx=0;entryDy=0;entryPerimeter=0;" parent="E0j1BQQdfri8mgkAOBtm-1" target="E0j1BQQdfri8mgkAOBtm-16" edge="1">
                    <mxGeometry width="50" height="50" relative="1" as="geometry">
                        <mxPoint x="800" y="562" as="sourcePoint"/>
                        <mxPoint x="740" y="490" as="targetPoint"/>
                    </mxGeometry>
                </mxCell>
                <mxCell id="qu-U0W3mSs8zjcbtvWfx-84" value="" style="endArrow=none;html=1;fillColor=none;entryX=0.526;entryY=0.002;entryDx=0;entryDy=0;entryPerimeter=0;" parent="E0j1BQQdfri8mgkAOBtm-1" target="E0j1BQQdfri8mgkAOBtm-16" edge="1">
                    <mxGeometry width="50" height="50" relative="1" as="geometry">
                        <mxPoint x="800" y="562" as="sourcePoint"/>
                        <mxPoint x="797.4000000000001" y="580" as="targetPoint"/>
                    </mxGeometry>
                </mxCell>
                <mxCell id="-niHzeSqQJRjHA5dSMC9-0" value="" style="edgeStyle=entityRelationEdgeStyle;fontSize=12;html=1;endArrow=ERmany;" edge="1" parent="E0j1BQQdfri8mgkAOBtm-1" source="E0j1BQQdfri8mgkAOBtm-10" target="E0j1BQQdfri8mgkAOBtm-121">
                    <mxGeometry width="100" height="100" relative="1" as="geometry">
                        <mxPoint x="330" y="725" as="sourcePoint"/>
                        <mxPoint x="580" y="885" as="targetPoint"/>
                    </mxGeometry>
                </mxCell>
            </root>
        </mxGraphModel>
    </diagram>
</mxfile>